<?xml version='1.0' encoding='UTF-8' standalone='no'?>
<svg xmlns="http://www.w3.org/2000/svg" width="275.759mm" height="186.605mm" viewBox="0 0 3257 2204" baseProfile="tiny" xmlns:inkscape="http://www.inkscape.org/namespaces/inkscape" version="1.2" xmlns:xlink="http://www.w3.org/1999/xlink">
 <defs/>
 <g stroke-linejoin="bevel" stroke-linecap="square" stroke="black" id="Page" fill-rule="evenodd" inkscape:label="Page" inkscape:groupmode="layer" stroke-width="1" fill="none">
  <g transform="matrix(1,0,0,1,0,0)" font-style="normal" font-family="MS Shell Dlg 2" stroke-linejoin="bevel" font-size="34.375" font-weight="400" stroke-opacity="1" stroke-linecap="square" stroke="#000000" stroke-width="1" fill="none"/>
  <g transform="matrix(1,0,0,1,0,0)" font-style="normal" font-family="MS Shell Dlg 2" stroke-linejoin="bevel" font-size="34.375" font-weight="400" stroke-opacity="1" stroke-linecap="square" stroke="#000000" stroke-width="1" fill="none"/>
  <g transform="matrix(11.8059,0,0,11.8059,-150.273,-139.141)" font-style="normal" font-family="MS Shell Dlg 2" stroke-linejoin="bevel" font-size="34.375" font-weight="400" stroke-opacity="1" stroke-linecap="square" stroke="#000000" stroke-width="1" fill="none"/>
  <g transform="matrix(0.999569,0,0,0.999569,-150.273,-139.141)" font-style="normal" font-family="MS Shell Dlg 2" stroke-linejoin="bevel" font-size="34.375" font-weight="400" stroke-opacity="1" stroke-linecap="square" stroke="#000000" stroke-width="1" fill="none"/>
  <g transform="matrix(0.999569,0,0,0.999569,-150.273,-139.141)" font-style="normal" font-family="MS Shell Dlg 2" font-size="34.375" font-weight="400" stroke="none" fill="#f7e3cf" fill-opacity="1">
   <path vector-effect="none" fill-rule="evenodd" d="M-2,-2 L3510,-2 L3510,2483 L-2,2483 L-2,-2"/>
  </g>
  <g transform="matrix(0.999569,0,0,0.999569,-150.273,-139.141)" font-style="normal" font-family="MS Shell Dlg 2" stroke-linejoin="bevel" font-size="34.375" font-weight="400" stroke-opacity="1" stroke-linecap="square" stroke="#000000" stroke-width="1" fill="none"/>
  <g transform="matrix(11.8059,0,0,11.8059,-150.273,-139.141)" font-style="normal" font-family="MS Shell Dlg 2" stroke-linejoin="bevel" font-size="34.375" font-weight="400" stroke-opacity="1" stroke-linecap="square" stroke="#000000" stroke-width="1" fill="none"/>
  <g transform="matrix(11.8059,0,0,11.8059,-150.273,-139.141)" font-style="normal" font-family="MS Shell Dlg 2" stroke-linejoin="bevel" font-size="34.375" font-weight="400" stroke-opacity="1" stroke-linecap="square" stroke="#000000" stroke-width="1" fill="none"/>
  <g transform="matrix(1,0,0,1,0,0)" font-style="normal" font-family="MS Shell Dlg 2" stroke-linejoin="bevel" font-size="34.375" font-weight="400" stroke-opacity="1" stroke-linecap="square" stroke="#000000" stroke-width="1" fill="none"/>
 </g>
 <defs/>
 <g stroke-linejoin="bevel" stroke-linecap="square" stroke="black" id="Map 3: Background" fill-rule="evenodd" inkscape:label="Map 3: Background" inkscape:groupmode="layer" stroke-width="1" fill="none">
  <g transform="matrix(1,0,0,1,0,0)" font-style="normal" font-family="MS Shell Dlg 2" stroke-linejoin="bevel" font-size="34.375" font-weight="400" stroke-opacity="1" stroke-linecap="square" stroke="#000000" stroke-width="1" fill="none"/>
  <g transform="matrix(1,0,0,1,0,0)" font-style="normal" font-family="MS Shell Dlg 2" stroke-linejoin="bevel" font-size="34.375" font-weight="400" stroke-opacity="1" stroke-linecap="square" stroke="#000000" stroke-width="1" fill="none"/>
  <g transform="matrix(11.8059,0,0,11.8059,0,0)" font-style="normal" font-family="MS Shell Dlg 2" stroke-linejoin="bevel" font-size="34.375" font-weight="400" stroke-opacity="1" stroke-linecap="square" stroke="#000000" stroke-width="1" fill="none"/>
  <g transform="matrix(11.8059,0,0,11.8059,0,0)" font-style="normal" font-family="MS Shell Dlg 2" font-size="34.375" font-weight="400" stroke="none" fill="#ffffff" fill-opacity="1">
   <path vector-effect="none" fill-rule="evenodd" d="M0,0 L275.786,0 L275.786,186.686 L0,186.686 L0,0"/>
  </g>
  <g transform="matrix(11.8059,0,0,11.8059,0,0)" font-style="normal" font-family="MS Shell Dlg 2" stroke-linejoin="bevel" font-size="34.375" font-weight="400" stroke-opacity="1" stroke-linecap="square" stroke="#000000" stroke-width="1" fill="none"/>
  <g transform="matrix(11.8059,0,0,11.8059,0,0)" font-style="normal" font-family="MS Shell Dlg 2" stroke-linejoin="bevel" font-size="34.375" font-weight="400" stroke-opacity="1" stroke-linecap="square" stroke="#000000" stroke-width="1" fill="none"/>
  <g transform="matrix(11.8059,0,0,11.8059,0,0)" font-style="normal" font-family="MS Shell Dlg 2" stroke-linejoin="bevel" font-size="34.375" font-weight="400" stroke-opacity="1" stroke-linecap="square" stroke="#000000" stroke-width="1" fill="none"/>
  <g transform="matrix(11.8059,0,0,11.8059,0,0)" font-style="normal" font-family="MS Shell Dlg 2" stroke-linejoin="bevel" font-size="34.375" font-weight="400" stroke-opacity="1" stroke-linecap="square" stroke="#000000" stroke-width="1" fill="none"/>
  <g transform="matrix(1,0,0,1,0,0)" font-style="normal" font-family="MS Shell Dlg 2" stroke-linejoin="bevel" font-size="34.375" font-weight="400" stroke-opacity="1" stroke-linecap="square" stroke="#000000" stroke-width="1" fill="none"/>
  <g transform="matrix(11.8059,0,0,11.8059,0,0)" font-style="normal" font-family="MS Shell Dlg 2" stroke-linejoin="bevel" font-size="34.375" font-weight="400" stroke-opacity="1" stroke-linecap="square" stroke="#000000" stroke-width="1" fill="none"/>
  <g transform="matrix(11.8059,0,0,11.8059,0,0)" font-style="normal" font-family="MS Shell Dlg 2" stroke-linejoin="bevel" font-size="34.375" font-weight="400" stroke-opacity="1" stroke-linecap="square" stroke="#000000" stroke-width="1" fill="none"/>
  <g transform="matrix(1,0,0,1,0,0)" font-style="normal" font-family="MS Shell Dlg 2" stroke-linejoin="bevel" font-size="34.375" font-weight="400" stroke-opacity="1" stroke-linecap="square" stroke="#000000" stroke-width="1" fill="none"/>
 </g>
 <defs/>
 <g stroke-linejoin="bevel" stroke-linecap="square" stroke="black" id="Map 3: Ocean" fill-rule="evenodd" inkscape:label="Map 3: Ocean" inkscape:groupmode="layer" stroke-width="1" fill="none">
  <g transform="matrix(1,0,0,1,0,0)" font-style="normal" font-family="MS Shell Dlg 2" stroke-linejoin="bevel" font-size="34.375" font-weight="400" stroke-opacity="1" stroke-linecap="square" stroke="#000000" stroke-width="1" fill="none"/>
  <g transform="matrix(1,0,0,1,0,0)" font-style="normal" font-family="MS Shell Dlg 2" stroke-linejoin="bevel" font-size="34.375" font-weight="400" stroke-opacity="1" stroke-linecap="square" stroke="#000000" stroke-width="1" fill="none"/>
  <g transform="matrix(11.8059,0,0,11.8059,0,0)" font-style="normal" font-family="MS Shell Dlg 2" stroke-linejoin="bevel" font-size="34.375" font-weight="400" stroke-opacity="1" stroke-linecap="square" stroke="#000000" stroke-width="1" fill="none"/>
  <g transform="matrix(11.8059,0,0,11.8059,0,0)" font-style="normal" font-family="MS Shell Dlg 2" stroke-linejoin="bevel" font-size="34.375" font-weight="400" stroke-opacity="1" stroke-linecap="square" stroke="#000000" stroke-width="1" fill="none"/>
  <g transform="matrix(0.999569,0,0,0.999569,0,0)" font-style="normal" font-family="MS Shell Dlg 2" font-size="34.375" font-weight="400" stroke="none" fill="#000000" fill-opacity="0">
   <rect width="3257" height="2205" y="0" x="0"/>
  </g>
  <g transform="matrix(0.999569,0,0,0.999569,0,0)" font-style="normal" font-family="MS Shell Dlg 2" stroke-linejoin="bevel" font-size="34.375" font-weight="400" stroke-opacity="1" stroke-linecap="square" stroke="#000000" stroke-width="1" fill="none"/>
  <g transform="matrix(0.999569,0,0,0.999569,0,0)" font-style="normal" font-family="MS Shell Dlg 2" stroke-linejoin="bevel" font-size="34.375" font-weight="400" stroke-opacity="1" stroke-linecap="square" stroke="#99a1bc" stroke-width="3.07087" fill="#a6cee3" fill-opacity="1">
   <path vector-effect="none" fill-rule="evenodd" d="M-325.7,-220.5 L-325.7,2425.5 L3582.7,2425.5 L3582.7,-220.5 L-325.7,-220.5"/>
  </g>
  <g transform="matrix(0.999569,0,0,0.999569,0,0)" font-style="normal" font-family="MS Shell Dlg 2" stroke-linejoin="bevel" font-size="34.375" font-weight="400" stroke-opacity="1" stroke-linecap="square" stroke="#000000" stroke-width="1" fill="none"/>
  <g transform="matrix(11.8059,0,0,11.8059,0,0)" font-style="normal" font-family="MS Shell Dlg 2" stroke-linejoin="bevel" font-size="34.375" font-weight="400" stroke-opacity="1" stroke-linecap="square" stroke="#000000" stroke-width="1" fill="none"/>
  <g transform="matrix(11.8059,0,0,11.8059,0,0)" font-style="normal" font-family="MS Shell Dlg 2" stroke-linejoin="bevel" font-size="34.375" font-weight="400" stroke-opacity="1" stroke-linecap="square" stroke="#000000" stroke-width="1" fill="none"/>
  <g transform="matrix(11.8059,0,0,11.8059,0,0)" font-style="normal" font-family="MS Shell Dlg 2" stroke-linejoin="bevel" font-size="34.375" font-weight="400" stroke-opacity="1" stroke-linecap="square" stroke="#000000" stroke-width="1" fill="none"/>
  <g transform="matrix(1,0,0,1,0,0)" font-style="normal" font-family="MS Shell Dlg 2" stroke-linejoin="bevel" font-size="34.375" font-weight="400" stroke-opacity="1" stroke-linecap="square" stroke="#000000" stroke-width="1" fill="none"/>
  <g transform="matrix(11.8059,0,0,11.8059,0,0)" font-style="normal" font-family="MS Shell Dlg 2" stroke-linejoin="bevel" font-size="34.375" font-weight="400" stroke-opacity="1" stroke-linecap="square" stroke="#000000" stroke-width="1" fill="none"/>
  <g transform="matrix(11.8059,0,0,11.8059,0,0)" font-style="normal" font-family="MS Shell Dlg 2" stroke-linejoin="bevel" font-size="34.375" font-weight="400" stroke-opacity="1" stroke-linecap="square" stroke="#000000" stroke-width="1" fill="none"/>
  <g transform="matrix(1,0,0,1,0,0)" font-style="normal" font-family="MS Shell Dlg 2" stroke-linejoin="bevel" font-size="34.375" font-weight="400" stroke-opacity="1" stroke-linecap="square" stroke="#000000" stroke-width="1" fill="none"/>
 </g>
 <defs/>
 <g stroke-linejoin="bevel" stroke-linecap="square" stroke="black" id="Map 3: No Data" fill-rule="evenodd" inkscape:label="Map 3: No Data" inkscape:groupmode="layer" stroke-width="1" fill="none">
  <g transform="matrix(1,0,0,1,0,0)" font-style="normal" font-family="MS Shell Dlg 2" stroke-linejoin="bevel" font-size="34.375" font-weight="400" stroke-opacity="1" stroke-linecap="square" stroke="#000000" stroke-width="1" fill="none"/>
  <g transform="matrix(1,0,0,1,0,0)" font-style="normal" font-family="MS Shell Dlg 2" stroke-linejoin="bevel" font-size="34.375" font-weight="400" stroke-opacity="1" stroke-linecap="square" stroke="#000000" stroke-width="1" fill="none"/>
  <g transform="matrix(11.8059,0,0,11.8059,0,0)" font-style="normal" font-family="MS Shell Dlg 2" stroke-linejoin="bevel" font-size="34.375" font-weight="400" stroke-opacity="1" stroke-linecap="square" stroke="#000000" stroke-width="1" fill="none"/>
  <g transform="matrix(11.8059,0,0,11.8059,0,0)" font-style="normal" font-family="MS Shell Dlg 2" stroke-linejoin="bevel" font-size="34.375" font-weight="400" stroke-opacity="1" stroke-linecap="square" stroke="#000000" stroke-width="1" fill="none"/>
  <g transform="matrix(0.999569,0,0,0.999569,0,0)" font-style="normal" font-family="MS Shell Dlg 2" font-size="34.375" font-weight="400" stroke="none" fill="#000000" fill-opacity="0">
   <rect width="3257" height="2205" y="0" x="0"/>
  </g>
  <g transform="matrix(0.999569,0,0,0.999569,0,0)" font-style="normal" font-family="MS Shell Dlg 2" stroke-linejoin="bevel" font-size="34.375" font-weight="400" stroke-opacity="1" stroke-linecap="square" stroke="#000000" stroke-width="1" fill="none"/>
  <g transform="matrix(0.999569,0,0,0.999569,0,0)" font-style="normal" font-family="MS Shell Dlg 2" stroke-linejoin="bevel" font-size="34.375" font-weight="400" stroke-opacity="1" stroke-linecap="square" stroke="#000000" stroke-width="0.590551" fill="#c2c2c2" fill-opacity="1">
   <path vector-effect="none" fill-rule="evenodd" d="M2018.66,684.853 L2149.16,778.513 L2113.62,819.381 L2111.84,860.249 L2090.52,846.034 L2058.54,821.158 L1997.18,808.293 L1976.8,828.265 L1948.37,798.059 L1871.97,854.918 L1886.18,894.009 L1932.38,908.224 L2010.56,933.099 L1916.39,970.413 L1831.1,1020.17 L1722.99,1089.28 L1657.52,1122.85 L1616.1,1171.2 L1527.26,1240.49 L1408.21,1292.02 L1294.49,1329.34 L1225.2,1327.56 L1171.89,1325.78 L1100.82,1284.92 L1070.61,1220.95 L1056.4,1171.2 L1099.31,1187.98 L1093.15,1155.15 L1108.87,1111.1 L1084.83,1066.36 L1118.59,1077.02 L1134.58,1050.37 L1155.9,1077.02 L1184.33,1101.9 L1143.46,1132.11 L1130.61,1183.98 L1120.36,1199.63 L1143.46,1215.62 L1226.97,1224.5 L1226.97,1238.72 L1161.21,1233.38 L1155.9,1263.59 L1186.11,1299.13 L1235.86,1299.13 L1299.82,1276.03 L1317.59,1244.05 L1360.24,1240.49 L1436.64,1201.4 L1538.13,1148.41 L1546.81,1132.11 L1475.73,1139.21 L1425.98,1121.45 L1386.6,1073.06 L1400.96,1056.65 L1541.67,1075.66 L1625.62,1041.15 L1674.3,1028.84 L1724.49,981.074 L1744.04,986.405 L1823.99,982.851 L1845.32,956.198 L1884.41,925.992 L1848.87,895.786 L1796.13,913.488 L1758.25,936.653 L1749.82,964.301 L1728.04,959.752 L1718.09,939.68 L1742.26,890.455 L1808.12,850.564 L1848.87,796.282 L1921.66,754.247 L2018.66,684.853"/>
   <path vector-effect="none" fill-rule="evenodd" d="M1379.78,1142.77 L1395.77,1137.44 L1415.32,1153.43 L1450.86,1167.64 L1438.42,1178.3 L1399.33,1172.97 L1356.68,1178.3 L1314.04,1174.75 L1301.6,1149.88 L1315.82,1140.99 L1354.91,1149.88 L1379.78,1142.77"/>
  </g>
  <g transform="matrix(0.999569,0,0,0.999569,0,0)" font-style="normal" font-family="MS Shell Dlg 2" stroke-linejoin="bevel" font-size="34.375" font-weight="400" stroke-opacity="1" stroke-linecap="square" stroke="#000000" stroke-width="1" fill="none"/>
  <g transform="matrix(11.8059,0,0,11.8059,0,0)" font-style="normal" font-family="MS Shell Dlg 2" stroke-linejoin="bevel" font-size="34.375" font-weight="400" stroke-opacity="1" stroke-linecap="square" stroke="#000000" stroke-width="1" fill="none"/>
  <g transform="matrix(11.8059,0,0,11.8059,0,0)" font-style="normal" font-family="MS Shell Dlg 2" stroke-linejoin="bevel" font-size="34.375" font-weight="400" stroke-opacity="1" stroke-linecap="square" stroke="#000000" stroke-width="1" fill="none"/>
  <g transform="matrix(11.8059,0,0,11.8059,0,0)" font-style="normal" font-family="MS Shell Dlg 2" stroke-linejoin="bevel" font-size="34.375" font-weight="400" stroke-opacity="1" stroke-linecap="square" stroke="#000000" stroke-width="1" fill="none"/>
  <g transform="matrix(1,0,0,1,0,0)" font-style="normal" font-family="MS Shell Dlg 2" stroke-linejoin="bevel" font-size="34.375" font-weight="400" stroke-opacity="1" stroke-linecap="square" stroke="#000000" stroke-width="1" fill="none"/>
  <g transform="matrix(11.8059,0,0,11.8059,0,0)" font-style="normal" font-family="MS Shell Dlg 2" stroke-linejoin="bevel" font-size="34.375" font-weight="400" stroke-opacity="1" stroke-linecap="square" stroke="#000000" stroke-width="1" fill="none"/>
  <g transform="matrix(11.8059,0,0,11.8059,0,0)" font-style="normal" font-family="MS Shell Dlg 2" stroke-linejoin="bevel" font-size="34.375" font-weight="400" stroke-opacity="1" stroke-linecap="square" stroke="#000000" stroke-width="1" fill="none"/>
  <g transform="matrix(1,0,0,1,0,0)" font-style="normal" font-family="MS Shell Dlg 2" stroke-linejoin="bevel" font-size="34.375" font-weight="400" stroke-opacity="1" stroke-linecap="square" stroke="#000000" stroke-width="1" fill="none"/>
 </g>
 <defs/>
 <g stroke-linejoin="bevel" stroke-linecap="square" stroke="black" id="Map 3: ne_10m_admin_0_countries" fill-rule="evenodd" inkscape:label="Map 3: ne_10m_admin_0_countries" inkscape:groupmode="layer" stroke-width="1" fill="none">
  <g transform="matrix(1,0,0,1,0,0)" font-style="normal" font-family="MS Shell Dlg 2" stroke-linejoin="bevel" font-size="34.375" font-weight="400" stroke-opacity="1" stroke-linecap="square" stroke="#000000" stroke-width="1" fill="none"/>
  <g transform="matrix(1,0,0,1,0,0)" font-style="normal" font-family="MS Shell Dlg 2" stroke-linejoin="bevel" font-size="34.375" font-weight="400" stroke-opacity="1" stroke-linecap="square" stroke="#000000" stroke-width="1" fill="none"/>
  <g transform="matrix(11.8059,0,0,11.8059,0,0)" font-style="normal" font-family="MS Shell Dlg 2" stroke-linejoin="bevel" font-size="34.375" font-weight="400" stroke-opacity="1" stroke-linecap="square" stroke="#000000" stroke-width="1" fill="none"/>
  <g transform="matrix(11.8059,0,0,11.8059,0,0)" font-style="normal" font-family="MS Shell Dlg 2" stroke-linejoin="bevel" font-size="34.375" font-weight="400" stroke-opacity="1" stroke-linecap="square" stroke="#000000" stroke-width="1" fill="none"/>
  <g transform="matrix(0.999569,0,0,0.999569,0,0)" font-style="normal" font-family="MS Shell Dlg 2" font-size="34.375" font-weight="400" stroke="none" fill="#000000" fill-opacity="0">
   <rect width="3257" height="2205" y="0" x="0"/>
  </g>
  <g transform="matrix(0.999569,0,0,0.999569,0,0)" font-style="normal" font-family="MS Shell Dlg 2" stroke-linejoin="bevel" font-size="34.375" font-weight="400" stroke-opacity="1" stroke-linecap="square" stroke="#000000" stroke-width="1" fill="none"/>
  <g transform="matrix(0.999569,0,0,0.999569,0,0)" font-style="normal" font-family="MS Shell Dlg 2" stroke-linejoin="bevel" font-size="34.375" font-weight="400" stroke-opacity="1" stroke-linecap="square" stroke="#232323" stroke-width="3.07087" fill="#e05225" fill-opacity="1">
   <path vector-effect="none" fill-rule="evenodd" d="M2018.66,684.853 L2149.16,778.513 L2113.62,819.381 L2111.84,860.249 L2090.52,846.034 L2058.54,821.158 L1997.18,808.293 L1976.8,828.265 L1948.37,798.059 L1871.97,854.918 L1886.18,894.009 L1932.38,908.224 L2010.56,933.099 L1916.39,970.413 L1831.1,1020.17 L1722.99,1089.28 L1657.52,1122.85 L1616.1,1171.2 L1527.26,1240.49 L1408.21,1292.02 L1294.49,1329.34 L1225.2,1327.56 L1171.89,1325.78 L1100.82,1284.92 L1070.61,1220.95 L1056.4,1171.2 L1099.31,1187.98 L1093.15,1155.15 L1108.87,1111.1 L1084.83,1066.36 L1118.59,1077.02 L1134.58,1050.37 L1155.9,1077.02 L1184.33,1101.9 L1143.46,1132.11 L1130.61,1183.98 L1120.36,1199.63 L1143.46,1215.62 L1226.97,1224.5 L1226.97,1238.72 L1161.21,1233.38 L1155.9,1263.59 L1186.11,1299.13 L1235.86,1299.13 L1299.82,1276.03 L1317.59,1244.05 L1360.24,1240.49 L1436.64,1201.4 L1538.13,1148.41 L1546.81,1132.11 L1475.73,1139.21 L1425.98,1121.45 L1386.6,1073.06 L1400.96,1056.65 L1541.67,1075.66 L1625.62,1041.15 L1674.3,1028.84 L1724.49,981.074 L1744.04,986.405 L1823.99,982.851 L1845.32,956.198 L1884.41,925.992 L1848.87,895.786 L1796.13,913.488 L1758.25,936.653 L1749.82,964.301 L1728.04,959.752 L1718.09,939.68 L1742.26,890.455 L1808.12,850.564 L1848.87,796.282 L1921.66,754.247 L2018.66,684.853"/>
   <path vector-effect="none" fill-rule="evenodd" d="M1379.78,1142.77 L1395.77,1137.44 L1415.32,1153.43 L1450.86,1167.64 L1438.42,1178.3 L1399.33,1172.97 L1356.68,1178.3 L1314.04,1174.75 L1301.6,1149.88 L1315.82,1140.99 L1354.91,1149.88 L1379.78,1142.77"/>
  </g>
  <g transform="matrix(0.999569,0,0,0.999569,0,0)" font-style="normal" font-family="MS Shell Dlg 2" stroke-linejoin="bevel" font-size="34.375" font-weight="400" stroke-opacity="1" stroke-linecap="square" stroke="#000000" stroke-width="1" fill="none"/>
  <g transform="matrix(11.8059,0,0,11.8059,0,0)" font-style="normal" font-family="MS Shell Dlg 2" stroke-linejoin="bevel" font-size="34.375" font-weight="400" stroke-opacity="1" stroke-linecap="square" stroke="#000000" stroke-width="1" fill="none"/>
  <g transform="matrix(11.8059,0,0,11.8059,0,0)" font-style="normal" font-family="MS Shell Dlg 2" stroke-linejoin="bevel" font-size="34.375" font-weight="400" stroke-opacity="1" stroke-linecap="square" stroke="#000000" stroke-width="1" fill="none"/>
  <g transform="matrix(11.8059,0,0,11.8059,0,0)" font-style="normal" font-family="MS Shell Dlg 2" stroke-linejoin="bevel" font-size="34.375" font-weight="400" stroke-opacity="1" stroke-linecap="square" stroke="#000000" stroke-width="1" fill="none"/>
  <g transform="matrix(1,0,0,1,0,0)" font-style="normal" font-family="MS Shell Dlg 2" stroke-linejoin="bevel" font-size="34.375" font-weight="400" stroke-opacity="1" stroke-linecap="square" stroke="#000000" stroke-width="1" fill="none"/>
  <g transform="matrix(11.8059,0,0,11.8059,0,0)" font-style="normal" font-family="MS Shell Dlg 2" stroke-linejoin="bevel" font-size="34.375" font-weight="400" stroke-opacity="1" stroke-linecap="square" stroke="#000000" stroke-width="1" fill="none"/>
  <g transform="matrix(11.8059,0,0,11.8059,0,0)" font-style="normal" font-family="MS Shell Dlg 2" stroke-linejoin="bevel" font-size="34.375" font-weight="400" stroke-opacity="1" stroke-linecap="square" stroke="#000000" stroke-width="1" fill="none"/>
  <g transform="matrix(1,0,0,1,0,0)" font-style="normal" font-family="MS Shell Dlg 2" stroke-linejoin="bevel" font-size="34.375" font-weight="400" stroke-opacity="1" stroke-linecap="square" stroke="#000000" stroke-width="1" fill="none"/>
 </g>
 <defs/>
 <g stroke-linejoin="bevel" stroke-linecap="square" stroke="black" id="Map 3: ne_10m_admin_0_countries (Labels)" fill-rule="evenodd" inkscape:label="Map 3: ne_10m_admin_0_countries (Labels)" inkscape:groupmode="layer" stroke-width="1" fill="none">
  <g transform="matrix(1,0,0,1,0,0)" font-style="normal" font-family="MS Shell Dlg 2" stroke-linejoin="bevel" font-size="34.375" font-weight="400" stroke-opacity="1" stroke-linecap="square" stroke="#000000" stroke-width="1" fill="none"/>
  <g transform="matrix(1,0,0,1,0,0)" font-style="normal" font-family="MS Shell Dlg 2" stroke-linejoin="bevel" font-size="34.375" font-weight="400" stroke-opacity="1" stroke-linecap="square" stroke="#000000" stroke-width="1" fill="none"/>
  <g transform="matrix(11.8059,0,0,11.8059,0,0)" font-style="normal" font-family="MS Shell Dlg 2" stroke-linejoin="bevel" font-size="34.375" font-weight="400" stroke-opacity="1" stroke-linecap="square" stroke="#000000" stroke-width="1" fill="none"/>
  <g transform="matrix(11.8059,0,0,11.8059,0,0)" font-style="normal" font-family="MS Shell Dlg 2" stroke-linejoin="bevel" font-size="34.375" font-weight="400" stroke-opacity="1" stroke-linecap="square" stroke="#000000" stroke-width="1" fill="none"/>
  <g transform="matrix(0.999569,0,0,0.999569,0,0)" font-style="normal" font-family="MS Shell Dlg 2" font-size="34.375" font-weight="400" stroke="none" fill="#000000" fill-opacity="0">
   <rect width="3257" height="2205" y="0" x="0"/>
  </g>
  <g transform="matrix(0.999569,0,0,0.999569,0,0)" font-style="normal" font-family="MS Shell Dlg 2" stroke-linejoin="bevel" font-size="34.375" font-weight="400" stroke-opacity="1" stroke-linecap="square" stroke="#000000" stroke-width="1" fill="none"/>
  <g transform="matrix(0.319862,0,0,0.319862,754.045,1125.81)" font-style="normal" font-family="MS Shell Dlg 2" stroke-linejoin="bevel" font-size="34.375" font-weight="400" stroke-opacity="1" stroke-linecap="square" stroke="#000000" stroke-width="1" fill="none"/>
  <g transform="matrix(0.999569,0,0,0.999569,754.045,1125.81)" font-style="normal" font-family="MS Shell Dlg 2" font-size="34.375" font-weight="400" stroke="none" fill="#000000" fill-opacity="1">
   <path vector-effect="none" fill-rule="nonzero" d="M47.0522,-18.521 C47.0522,-15.522 46.4849,-12.8742 45.3501,-10.5776 C44.2153,-8.28109 42.6888,-6.38981 40.7705,-4.90381 C38.501,-3.12061 36.0693,-1.8575 33.4756,-1.1145 C30.8818,-0.371501 27.5316,0 23.4248,0 L6.11963,0 L6.11963,-60.3452 L22.1279,-60.3452 C26.4238,-60.3452 29.6458,-60.2034 31.7937,-59.9197 C33.9417,-59.636 36.0018,-58.9673 37.9741,-57.9136 C40.1356,-56.7518 41.7161,-55.232 42.7158,-53.3542 C43.7155,-51.4765 44.2153,-49.2677 44.2153,-46.728 C44.2153,-43.8911 43.4656,-41.3514 41.9661,-39.1089 C40.4666,-36.8664 38.3929,-35.1102 35.7451,-33.8403 L35.7451,-33.5161 C39.3385,-32.5435 42.1214,-30.767 44.0938,-28.1868 C46.0661,-25.6065 47.0522,-22.3846 47.0522,-18.521 M35.8667,-45.5933 C35.8667,-47.0522 35.6235,-48.3153 35.1372,-49.3826 C34.6509,-50.4498 33.8674,-51.2941 32.7866,-51.9155 C31.4897,-52.645 30.0443,-53.0908 28.4502,-53.2529 C26.8561,-53.415 24.6541,-53.4961 21.8442,-53.4961 L14.144,-53.4961 L14.144,-35.8262 L23.2627,-35.8262 C25.7754,-35.8262 27.6261,-35.9545 28.8149,-36.2112 C30.0037,-36.4679 31.2331,-37.0015 32.5029,-37.812 C33.7188,-38.5955 34.5833,-39.6222 35.0967,-40.8921 C35.61,-42.1619 35.8667,-43.729 35.8667,-45.5933 M38.7036,-18.1968 C38.7036,-20.4663 38.3794,-22.3373 37.731,-23.8098 C37.0825,-25.2823 35.7721,-26.5319 33.7998,-27.5586 C32.5299,-28.234 31.1453,-28.6663 29.6458,-28.8555 C28.1462,-29.0446 26.0186,-29.1392 23.2627,-29.1392 L14.144,-29.1392 L14.144,-6.84912 L20.6689,-6.84912 C24.1813,-6.84912 26.9507,-7.01123 28.9771,-7.33545 C31.0034,-7.65967 32.7866,-8.34863 34.3267,-9.40234 C35.8397,-10.4561 36.9474,-11.6516 37.6499,-12.989 C38.3524,-14.3264 38.7036,-16.0623 38.7036,-18.1968 M74.1675,1.05371 C66.9536,1.05371 61.3541,-0.979411 57.3689,-5.04565 C53.3837,-9.1119 51.3911,-14.887 51.3911,-22.3711 C51.3911,-29.7471 53.3229,-35.6168 57.1865,-39.9802 C61.0501,-44.3437 66.1025,-46.5254 72.3438,-46.5254 C75.1536,-46.5254 77.6393,-46.1201 79.8008,-45.3096 C81.9622,-44.499 83.8535,-43.2292 85.4746,-41.5 C87.0957,-39.7708 88.3385,-37.6567 89.2031,-35.1575 C90.0677,-32.6583 90.5,-29.5985 90.5,-25.978 L90.5,-21.8442 L59.1318,-21.8442 C59.1318,-16.5757 60.4557,-12.55 63.1035,-9.76709 C65.7513,-6.98421 69.4123,-5.59277 74.0864,-5.59277 C75.7616,-5.59277 77.4029,-5.7819 79.0105,-6.16016 C80.6181,-6.53841 82.0703,-7.02474 83.3672,-7.61914 C84.7451,-8.24056 85.9069,-8.84172 86.8525,-9.42261 C87.7982,-10.0035 88.5817,-10.5506 89.2031,-11.064 L89.6489,-11.064 L89.6489,-2.75586 C88.7573,-2.40462 87.6496,-1.96558 86.3257,-1.43872 C85.0018,-0.911865 83.813,-0.499837 82.7593,-0.202637 C81.2733,0.202637 79.9291,0.513346 78.7268,0.729492 C77.5245,0.945638 76.0047,1.05371 74.1675,1.05371 M83.0835,-27.6802 C83.0295,-29.7336 82.7863,-31.5033 82.354,-32.9893 C81.9217,-34.4753 81.3003,-35.7316 80.4897,-36.7583 C79.5981,-37.8931 78.4566,-38.7576 77.0652,-39.3521 C75.6737,-39.9465 73.9513,-40.2437 71.8979,-40.2437 C69.8716,-40.2437 68.1492,-39.9397 66.7307,-39.3318 C65.3123,-38.7239 64.0221,-37.839 62.8604,-36.6772 C61.7256,-35.4884 60.861,-34.1713 60.2666,-32.7258 C59.6722,-31.2804 59.2939,-29.5985 59.1318,-27.6802 L83.0835,-27.6802 M122.504,-37.0825 L122.099,-37.0825 C121.531,-37.2446 120.93,-37.3459 120.295,-37.3865 C119.66,-37.427 118.897,-37.4473 118.005,-37.4473 C115.952,-37.4473 113.912,-37.0015 111.886,-36.1099 C109.859,-35.2183 107.941,-33.8944 106.131,-32.1382 L106.131,0 L98.5117,0 L98.5117,-45.269 L106.131,-45.269 L106.131,-38.5415 C108.914,-41.0002 111.339,-42.7361 113.406,-43.7493 C115.472,-44.7625 117.479,-45.269 119.424,-45.269 C120.207,-45.269 120.795,-45.2488 121.187,-45.2083 C121.579,-45.1677 122.018,-45.1069 122.504,-45.0259 L122.504,-37.0825 M179.9,0 L179.9,-26.1807 C179.9,-28.2611 179.819,-30.1861 179.657,-31.9558 C179.495,-33.7255 179.157,-35.1102 178.644,-36.1099 C178.104,-37.1906 177.334,-37.9876 176.334,-38.501 C175.334,-39.0143 173.983,-39.271 172.281,-39.271 C170.714,-39.271 169.032,-38.7914 167.236,-37.8323 C165.439,-36.8731 163.581,-35.4884 161.663,-33.6782 C161.69,-33.2189 161.724,-32.6718 161.764,-32.0369 C161.805,-31.4019 161.825,-30.6522 161.825,-29.7876 L161.825,0 L154.206,0 L154.206,-26.1807 C154.206,-28.2611 154.125,-30.1861 153.963,-31.9558 C153.801,-33.7255 153.463,-35.1102 152.95,-36.1099 C152.409,-37.1906 151.639,-37.9876 150.64,-38.501 C149.64,-39.0143 148.289,-39.271 146.587,-39.271 C144.939,-39.271 143.21,-38.7576 141.399,-37.731 C139.589,-36.7043 137.833,-35.3939 136.131,-33.7998 L136.131,0 L128.512,0 L128.512,-45.269 L136.131,-45.269 L136.131,-40.2437 C138.13,-42.243 140.109,-43.7898 142.068,-44.884 C144.027,-45.9783 146.182,-46.5254 148.532,-46.5254 C151.207,-46.5254 153.578,-45.9175 155.645,-44.7017 C157.712,-43.4858 159.285,-41.4865 160.366,-38.7036 C162.663,-41.2703 164.905,-43.2157 167.094,-44.5396 C169.282,-45.8634 171.66,-46.5254 174.227,-46.5254 C176.172,-46.5254 177.942,-46.2214 179.536,-45.6135 C181.13,-45.0056 182.521,-44.0262 183.71,-42.6753 C184.926,-41.2974 185.865,-39.5817 186.527,-37.5283 C187.189,-35.4749 187.52,-32.8947 187.52,-29.7876 L187.52,0 L179.9,0 M233.771,0 L226.151,0 L226.151,-5.02539 C223.801,-2.97201 221.572,-1.4117 219.464,-0.344482 C217.357,0.722738 215.006,1.25635 212.413,1.25635 C210.44,1.25635 208.583,0.932129 206.84,0.283691 C205.097,-0.364746 203.578,-1.39144 202.281,-2.79639 C200.984,-4.20133 199.977,-5.97103 199.261,-8.10547 C198.545,-10.2399 198.188,-12.8337 198.188,-15.8867 L198.188,-45.269 L205.807,-45.269 L205.807,-19.4937 C205.807,-17.089 205.894,-15.0964 206.07,-13.5159 C206.246,-11.9353 206.644,-10.5506 207.266,-9.36182 C207.887,-8.20003 208.731,-7.34896 209.799,-6.80859 C210.866,-6.26823 212.399,-5.99805 214.398,-5.99805 C216.263,-5.99805 218.249,-6.5249 220.356,-7.57861 C222.463,-8.63232 224.395,-9.9292 226.151,-11.4692 L226.151,-45.269 L233.771,-45.269 L233.771,0 M279.365,0 L271.746,0 L271.746,-4.62012 C270.557,-3.62044 269.531,-2.79639 268.666,-2.14795 C267.801,-1.49951 266.788,-0.905111 265.626,-0.364746 C264.546,0.1486 263.424,0.547119 262.263,0.830811 C261.101,1.1145 259.75,1.25635 258.21,1.25635 C255.751,1.25635 253.475,0.743001 251.381,-0.283691 C249.287,-1.31038 247.511,-2.8099 246.052,-4.78223 C244.566,-6.78158 243.417,-9.24699 242.607,-12.1785 C241.796,-15.1099 241.391,-18.4805 241.391,-22.29 C241.391,-26.2617 241.904,-29.6998 242.931,-32.6042 C243.958,-35.5087 245.376,-38.0417 247.187,-40.2031 C248.835,-42.1755 250.827,-43.7222 253.164,-44.8435 C255.501,-45.9648 257.953,-46.5254 260.52,-46.5254 C262.79,-46.5254 264.762,-46.2755 266.437,-45.7756 C268.112,-45.2758 269.882,-44.499 271.746,-43.4453 L271.746,-63.0605 L279.365,-63.0605 L279.365,0 M271.746,-11.0234 L271.746,-37.123 C269.855,-38.0417 268.159,-38.6766 266.66,-39.0278 C265.16,-39.3791 263.533,-39.5547 261.776,-39.5547 C257.859,-39.5547 254.792,-38.0889 252.577,-35.1575 C250.361,-32.226 249.253,-27.9909 249.253,-22.4521 C249.253,-17.1296 250.104,-13.0566 251.807,-10.2332 C253.509,-7.40975 256.238,-5.99805 259.993,-5.99805 C261.993,-5.99805 264.005,-6.4506 266.032,-7.35571 C268.058,-8.26082 269.963,-9.4834 271.746,-11.0234 M315.801,-11.145 L315.801,-23.7085 C313.991,-23.5464 311.701,-23.3235 308.931,-23.0398 C306.162,-22.7561 303.926,-22.3576 302.224,-21.8442 C300.198,-21.2228 298.523,-20.2704 297.199,-18.9871 C295.875,-17.7037 295.213,-15.9137 295.213,-13.6172 C295.213,-11.0234 295.942,-9.06462 297.401,-7.74072 C298.86,-6.41683 300.995,-5.75488 303.805,-5.75488 C306.209,-5.75488 308.384,-6.27498 310.33,-7.31519 C312.275,-8.35539 314.099,-9.632 315.801,-11.145 M315.801,-4.82275 C315.179,-4.36344 314.349,-3.72176 313.308,-2.89771 C312.268,-2.07365 311.262,-1.41846 310.289,-0.932129 C308.938,-0.229655 307.635,0.31071 306.378,0.688965 C305.122,1.06722 303.359,1.25635 301.089,1.25635 C299.225,1.25635 297.455,0.905111 295.78,0.202637 C294.105,-0.499837 292.633,-1.486 291.363,-2.75586 C290.147,-3.9987 289.174,-5.53198 288.445,-7.35571 C287.715,-9.17944 287.351,-11.1045 287.351,-13.1309 C287.351,-16.265 288.013,-18.933 289.336,-21.135 C290.66,-23.337 292.754,-25.0864 295.618,-26.3833 C298.158,-27.5451 301.157,-28.3489 304.615,-28.7947 C308.074,-29.2405 311.802,-29.5715 315.801,-29.7876 L315.801,-31.2466 C315.801,-33.0298 315.531,-34.4685 314.99,-35.5627 C314.45,-36.657 313.693,-37.5013 312.721,-38.0957 C311.748,-38.7171 310.559,-39.1292 309.154,-39.3318 C307.749,-39.5344 306.304,-39.6357 304.818,-39.6357 C303.062,-39.6357 300.995,-39.3723 298.617,-38.8455 C296.24,-38.3186 293.862,-37.5553 291.484,-36.5557 L291.039,-36.5557 L291.039,-44.2964 C292.444,-44.7017 294.456,-45.1475 297.077,-45.6338 C299.698,-46.1201 302.292,-46.3633 304.858,-46.3633 C307.965,-46.3633 310.586,-46.1201 312.721,-45.6338 C314.855,-45.1475 316.773,-44.2694 318.476,-42.9995 C320.124,-41.7567 321.353,-40.1491 322.164,-38.1768 C322.974,-36.2044 323.379,-33.7998 323.379,-30.9629 L323.379,0 L315.801,0 L315.801,-4.82275"/>
  </g>
  <g transform="matrix(0.319862,0,0,0.319862,754.045,1125.81)" font-style="normal" font-family="MS Shell Dlg 2" stroke-linejoin="bevel" font-size="34.375" font-weight="400" stroke-opacity="1" stroke-linecap="square" stroke="#000000" stroke-width="1" fill="none"/>
  <g transform="matrix(0.999569,0,0,0.999569,0,0)" font-style="normal" font-family="MS Shell Dlg 2" stroke-linejoin="bevel" font-size="34.375" font-weight="400" stroke-opacity="1" stroke-linecap="square" stroke="#000000" stroke-width="1" fill="none"/>
  <g transform="matrix(11.8059,0,0,11.8059,0,0)" font-style="normal" font-family="MS Shell Dlg 2" stroke-linejoin="bevel" font-size="34.375" font-weight="400" stroke-opacity="1" stroke-linecap="square" stroke="#000000" stroke-width="1" fill="none"/>
  <g transform="matrix(11.8059,0,0,11.8059,0,0)" font-style="normal" font-family="MS Shell Dlg 2" stroke-linejoin="bevel" font-size="34.375" font-weight="400" stroke-opacity="1" stroke-linecap="square" stroke="#000000" stroke-width="1" fill="none"/>
  <g transform="matrix(11.8059,0,0,11.8059,0,0)" font-style="normal" font-family="MS Shell Dlg 2" stroke-linejoin="bevel" font-size="34.375" font-weight="400" stroke-opacity="1" stroke-linecap="square" stroke="#000000" stroke-width="1" fill="none"/>
  <g transform="matrix(1,0,0,1,0,0)" font-style="normal" font-family="MS Shell Dlg 2" stroke-linejoin="bevel" font-size="34.375" font-weight="400" stroke-opacity="1" stroke-linecap="square" stroke="#000000" stroke-width="1" fill="none"/>
  <g transform="matrix(11.8059,0,0,11.8059,0,0)" font-style="normal" font-family="MS Shell Dlg 2" stroke-linejoin="bevel" font-size="34.375" font-weight="400" stroke-opacity="1" stroke-linecap="square" stroke="#000000" stroke-width="1" fill="none"/>
  <g transform="matrix(11.8059,0,0,11.8059,0,0)" font-style="normal" font-family="MS Shell Dlg 2" stroke-linejoin="bevel" font-size="34.375" font-weight="400" stroke-opacity="1" stroke-linecap="square" stroke="#000000" stroke-width="1" fill="none"/>
  <g transform="matrix(1,0,0,1,0,0)" font-style="normal" font-family="MS Shell Dlg 2" stroke-linejoin="bevel" font-size="34.375" font-weight="400" stroke-opacity="1" stroke-linecap="square" stroke="#000000" stroke-width="1" fill="none"/>
 </g>
 <defs/>
 <g stroke-linejoin="bevel" stroke-linecap="square" stroke="black" id="Labels, Shape" fill-rule="evenodd" inkscape:label="Labels, Shape" inkscape:groupmode="layer" stroke-width="1" fill="none">
  <g transform="matrix(1,0,0,1,0,0)" font-style="normal" font-family="MS Shell Dlg 2" stroke-linejoin="bevel" font-size="34.375" font-weight="400" stroke-opacity="1" stroke-linecap="square" stroke="#000000" stroke-width="1" fill="none"/>
  <g transform="matrix(1,0,0,1,0,0)" font-style="normal" font-family="MS Shell Dlg 2" stroke-linejoin="bevel" font-size="34.375" font-weight="400" stroke-opacity="1" stroke-linecap="square" stroke="#000000" stroke-width="1" fill="none"/>
  <g transform="matrix(11.8059,0,0,11.8059,200.364,1708.66)" font-style="normal" font-family="MS Shell Dlg 2" stroke-linejoin="bevel" font-size="34.375" font-weight="400" stroke-opacity="1" stroke-linecap="square" stroke="#000000" stroke-width="1" fill="none"/>
  <g transform="matrix(0.999569,0,0,0.999569,200.364,1708.66)" font-style="normal" font-family="MS Shell Dlg 2" stroke-linejoin="bevel" font-size="34.375" font-weight="400" stroke-opacity="1" stroke-linecap="square" stroke="#000000" stroke-width="1" fill="none"/>
  <g transform="matrix(11.8059,0,0,11.8059,200.364,1708.66)" font-style="normal" font-family="MS Shell Dlg 2" stroke-linejoin="bevel" font-size="41.6667" font-weight="400" stroke-opacity="1" stroke-linecap="square" stroke="#000000" stroke-width="1" fill="none"/>
  <g transform="matrix(11.8059,0,0,11.8059,200.364,1708.66)" font-style="normal" font-family="MS Shell Dlg 2" stroke-linejoin="bevel" font-size="41.6667" font-weight="400" stroke-opacity="1" stroke-linecap="square" stroke="#000000" stroke-width="1" fill="none"/>
  <g transform="matrix(0.999569,0,0,0.999569,200.364,1708.66)" font-style="normal" font-family="MS Shell Dlg 2" stroke-linejoin="bevel" font-size="34.375" font-weight="400" stroke-opacity="1" stroke-linecap="square" stroke="#000000" stroke-width="1" fill="none"/>
  <g transform="matrix(11.8059,0,0,11.8059,200.364,1708.66)" font-style="normal" font-family="MS Shell Dlg 2" stroke-linejoin="bevel" font-size="34.375" font-weight="400" stroke-opacity="1" stroke-linecap="square" stroke="#000000" stroke-width="1" fill="none"/>
  <g transform="matrix(11.8059,0,0,11.8059,200.364,1708.66)" font-style="normal" font-family="MS Shell Dlg 2" stroke-linejoin="bevel" font-size="34.375" font-weight="400" stroke-opacity="1" stroke-linecap="square" stroke="#000000" stroke-width="1" fill="none"/>
  <g transform="matrix(11.8059,0,0,11.8059,66.7879,1853.36)" font-style="normal" font-family="MS Shell Dlg 2" stroke-linejoin="bevel" font-size="34.375" font-weight="400" stroke-opacity="1" stroke-linecap="square" stroke="#000000" stroke-width="1" fill="none"/>
  <g transform="matrix(0.999569,0,0,0.999569,66.7879,1853.36)" font-style="normal" font-family="MS Shell Dlg 2" stroke-linejoin="miter" font-size="34.375" font-weight="400" stroke-opacity="1" stroke-linecap="square" stroke-miterlimit="2" stroke="#000000" stroke-width="3.54331" fill="#d5c1a8" fill-opacity="1">
   <path vector-effect="none" fill-rule="evenodd" d="M0,0 L606.918,0 L606.918,300.675 L0,300.675 L0,0"/>
  </g>
  <g transform="matrix(11.8059,0,0,11.8059,66.7879,1853.36)" font-style="normal" font-family="MS Shell Dlg 2" stroke-linejoin="bevel" font-size="34.375" font-weight="400" stroke-opacity="1" stroke-linecap="square" stroke="#000000" stroke-width="1" fill="none"/>
  <g transform="matrix(11.8059,0,0,11.8059,66.7879,1853.36)" font-style="normal" font-family="MS Shell Dlg 2" stroke-linejoin="bevel" font-size="34.375" font-weight="400" stroke-opacity="1" stroke-linecap="square" stroke="#000000" stroke-width="1" fill="none"/>
  <g transform="matrix(11.8059,0,0,11.8059,172.535,1903.45)" font-style="normal" font-family="MS Shell Dlg 2" stroke-linejoin="bevel" font-size="34.375" font-weight="400" stroke-opacity="1" stroke-linecap="square" stroke="#000000" stroke-width="1" fill="none"/>
  <g transform="matrix(0.999569,0,0,0.999569,172.535,1903.45)" font-style="normal" font-family="MS Shell Dlg 2" stroke-linejoin="bevel" font-size="34.375" font-weight="400" stroke-opacity="1" stroke-linecap="square" stroke="#000000" stroke-width="1" fill="none"/>
  <g transform="matrix(11.8059,0,0,11.8059,172.535,1903.45)" font-style="normal" font-family="MS Shell Dlg 2" stroke-linejoin="bevel" font-size="62.5" font-weight="400" stroke-opacity="1" stroke-linecap="square" stroke="#000000" stroke-width="1" fill="none"/>
  <g transform="matrix(1.18059,0,0,1.18059,172.535,1903.45)" font-style="normal" font-family="MS Shell Dlg 2" stroke-linejoin="bevel" font-size="53" font-weight="400" stroke-opacity="1" stroke-linecap="square" stroke="#000000" stroke-width="1" fill="none">
   <text font-style="normal" font-family="MS Shell Dlg 2" font-size="53" font-weight="400" y="103.5" stroke="none" x="41.7813" fill="#000000" fill-opacity="1" xml:space="preserve">Tariff: 25%</text>
  </g>
  <g transform="matrix(11.8059,0,0,11.8059,172.535,1903.45)" font-style="normal" font-family="MS Shell Dlg 2" stroke-linejoin="bevel" font-size="62.5" font-weight="400" stroke-opacity="1" stroke-linecap="square" stroke="#000000" stroke-width="1" fill="none"/>
  <g transform="matrix(0.999569,0,0,0.999569,172.535,1903.45)" font-style="normal" font-family="MS Shell Dlg 2" stroke-linejoin="bevel" font-size="34.375" font-weight="400" stroke-opacity="1" stroke-linecap="square" stroke="#000000" stroke-width="1" fill="none"/>
  <g transform="matrix(11.8059,0,0,11.8059,172.535,1903.45)" font-style="normal" font-family="MS Shell Dlg 2" stroke-linejoin="bevel" font-size="34.375" font-weight="400" stroke-opacity="1" stroke-linecap="square" stroke="#000000" stroke-width="1" fill="none"/>
  <g transform="matrix(11.8059,0,0,11.8059,172.535,1903.45)" font-style="normal" font-family="MS Shell Dlg 2" stroke-linejoin="bevel" font-size="34.375" font-weight="400" stroke-opacity="1" stroke-linecap="square" stroke="#000000" stroke-width="1" fill="none"/>
  <g transform="matrix(1,0,0,1,0,0)" font-style="normal" font-family="MS Shell Dlg 2" stroke-linejoin="bevel" font-size="34.375" font-weight="400" stroke-opacity="1" stroke-linecap="square" stroke="#000000" stroke-width="1" fill="none"/>
 </g>
</svg>
