<?xml version='1.0' encoding='UTF-8' standalone='no'?>
<svg xmlns="http://www.w3.org/2000/svg" width="275.759mm" height="186.605mm" viewBox="0 0 3257 2204" baseProfile="tiny" xmlns:inkscape="http://www.inkscape.org/namespaces/inkscape" version="1.2" xmlns:xlink="http://www.w3.org/1999/xlink">
 <defs/>
 <g stroke-linejoin="bevel" stroke-linecap="square" stroke="black" id="Page" fill-rule="evenodd" inkscape:label="Page" inkscape:groupmode="layer" stroke-width="1" fill="none">
  <g transform="matrix(1,0,0,1,0,0)" font-style="normal" font-family="MS Shell Dlg 2" stroke-linejoin="bevel" font-size="34.375" font-weight="400" stroke-opacity="1" stroke-linecap="square" stroke="#000000" stroke-width="1" fill="none"/>
  <g transform="matrix(1,0,0,1,0,0)" font-style="normal" font-family="MS Shell Dlg 2" stroke-linejoin="bevel" font-size="34.375" font-weight="400" stroke-opacity="1" stroke-linecap="square" stroke="#000000" stroke-width="1" fill="none"/>
  <g transform="matrix(11.8059,0,0,11.8059,-150.273,-139.141)" font-style="normal" font-family="MS Shell Dlg 2" stroke-linejoin="bevel" font-size="34.375" font-weight="400" stroke-opacity="1" stroke-linecap="square" stroke="#000000" stroke-width="1" fill="none"/>
  <g transform="matrix(0.999569,0,0,0.999569,-150.273,-139.141)" font-style="normal" font-family="MS Shell Dlg 2" stroke-linejoin="bevel" font-size="34.375" font-weight="400" stroke-opacity="1" stroke-linecap="square" stroke="#000000" stroke-width="1" fill="none"/>
  <g transform="matrix(0.999569,0,0,0.999569,-150.273,-139.141)" font-style="normal" font-family="MS Shell Dlg 2" font-size="34.375" font-weight="400" stroke="none" fill="#f7e3cf" fill-opacity="1">
   <path vector-effect="none" fill-rule="evenodd" d="M-2,-2 L3510,-2 L3510,2483 L-2,2483 L-2,-2"/>
  </g>
  <g transform="matrix(0.999569,0,0,0.999569,-150.273,-139.141)" font-style="normal" font-family="MS Shell Dlg 2" stroke-linejoin="bevel" font-size="34.375" font-weight="400" stroke-opacity="1" stroke-linecap="square" stroke="#000000" stroke-width="1" fill="none"/>
  <g transform="matrix(11.8059,0,0,11.8059,-150.273,-139.141)" font-style="normal" font-family="MS Shell Dlg 2" stroke-linejoin="bevel" font-size="34.375" font-weight="400" stroke-opacity="1" stroke-linecap="square" stroke="#000000" stroke-width="1" fill="none"/>
  <g transform="matrix(11.8059,0,0,11.8059,-150.273,-139.141)" font-style="normal" font-family="MS Shell Dlg 2" stroke-linejoin="bevel" font-size="34.375" font-weight="400" stroke-opacity="1" stroke-linecap="square" stroke="#000000" stroke-width="1" fill="none"/>
  <g transform="matrix(1,0,0,1,0,0)" font-style="normal" font-family="MS Shell Dlg 2" stroke-linejoin="bevel" font-size="34.375" font-weight="400" stroke-opacity="1" stroke-linecap="square" stroke="#000000" stroke-width="1" fill="none"/>
 </g>
 <defs/>
 <g stroke-linejoin="bevel" stroke-linecap="square" stroke="black" id="Map 1: Background" fill-rule="evenodd" inkscape:label="Map 1: Background" inkscape:groupmode="layer" stroke-width="1" fill="none">
  <g transform="matrix(1,0,0,1,0,0)" font-style="normal" font-family="MS Shell Dlg 2" stroke-linejoin="bevel" font-size="34.375" font-weight="400" stroke-opacity="1" stroke-linecap="square" stroke="#000000" stroke-width="1" fill="none"/>
  <g transform="matrix(1,0,0,1,0,0)" font-style="normal" font-family="MS Shell Dlg 2" stroke-linejoin="bevel" font-size="34.375" font-weight="400" stroke-opacity="1" stroke-linecap="square" stroke="#000000" stroke-width="1" fill="none"/>
  <g transform="matrix(11.8059,0,0,11.8059,0,0)" font-style="normal" font-family="MS Shell Dlg 2" stroke-linejoin="bevel" font-size="34.375" font-weight="400" stroke-opacity="1" stroke-linecap="square" stroke="#000000" stroke-width="1" fill="none"/>
  <g transform="matrix(11.8059,0,0,11.8059,0,0)" font-style="normal" font-family="MS Shell Dlg 2" font-size="34.375" font-weight="400" stroke="none" fill="#ffffff" fill-opacity="1">
   <path vector-effect="none" fill-rule="evenodd" d="M0,0 L275.786,0 L275.786,186.686 L0,186.686 L0,0"/>
  </g>
  <g transform="matrix(11.8059,0,0,11.8059,0,0)" font-style="normal" font-family="MS Shell Dlg 2" stroke-linejoin="bevel" font-size="34.375" font-weight="400" stroke-opacity="1" stroke-linecap="square" stroke="#000000" stroke-width="1" fill="none"/>
  <g transform="matrix(11.8059,0,0,11.8059,0,0)" font-style="normal" font-family="MS Shell Dlg 2" stroke-linejoin="bevel" font-size="34.375" font-weight="400" stroke-opacity="1" stroke-linecap="square" stroke="#000000" stroke-width="1" fill="none"/>
  <g transform="matrix(11.8059,0,0,11.8059,0,0)" font-style="normal" font-family="MS Shell Dlg 2" stroke-linejoin="bevel" font-size="34.375" font-weight="400" stroke-opacity="1" stroke-linecap="square" stroke="#000000" stroke-width="1" fill="none"/>
  <g transform="matrix(11.8059,0,0,11.8059,0,0)" font-style="normal" font-family="MS Shell Dlg 2" stroke-linejoin="bevel" font-size="34.375" font-weight="400" stroke-opacity="1" stroke-linecap="square" stroke="#000000" stroke-width="1" fill="none"/>
  <g transform="matrix(1,0,0,1,0,0)" font-style="normal" font-family="MS Shell Dlg 2" stroke-linejoin="bevel" font-size="34.375" font-weight="400" stroke-opacity="1" stroke-linecap="square" stroke="#000000" stroke-width="1" fill="none"/>
  <g transform="matrix(11.8059,0,0,11.8059,0,0)" font-style="normal" font-family="MS Shell Dlg 2" stroke-linejoin="bevel" font-size="34.375" font-weight="400" stroke-opacity="1" stroke-linecap="square" stroke="#000000" stroke-width="1" fill="none"/>
  <g transform="matrix(11.8059,0,0,11.8059,0,0)" font-style="normal" font-family="MS Shell Dlg 2" stroke-linejoin="bevel" font-size="34.375" font-weight="400" stroke-opacity="1" stroke-linecap="square" stroke="#000000" stroke-width="1" fill="none"/>
  <g transform="matrix(1,0,0,1,0,0)" font-style="normal" font-family="MS Shell Dlg 2" stroke-linejoin="bevel" font-size="34.375" font-weight="400" stroke-opacity="1" stroke-linecap="square" stroke="#000000" stroke-width="1" fill="none"/>
 </g>
 <defs/>
 <g stroke-linejoin="bevel" stroke-linecap="square" stroke="black" id="Map 1: Ocean" fill-rule="evenodd" inkscape:label="Map 1: Ocean" inkscape:groupmode="layer" stroke-width="1" fill="none">
  <g transform="matrix(1,0,0,1,0,0)" font-style="normal" font-family="MS Shell Dlg 2" stroke-linejoin="bevel" font-size="34.375" font-weight="400" stroke-opacity="1" stroke-linecap="square" stroke="#000000" stroke-width="1" fill="none"/>
  <g transform="matrix(1,0,0,1,0,0)" font-style="normal" font-family="MS Shell Dlg 2" stroke-linejoin="bevel" font-size="34.375" font-weight="400" stroke-opacity="1" stroke-linecap="square" stroke="#000000" stroke-width="1" fill="none"/>
  <g transform="matrix(11.8059,0,0,11.8059,0,0)" font-style="normal" font-family="MS Shell Dlg 2" stroke-linejoin="bevel" font-size="34.375" font-weight="400" stroke-opacity="1" stroke-linecap="square" stroke="#000000" stroke-width="1" fill="none"/>
  <g transform="matrix(11.8059,0,0,11.8059,0,0)" font-style="normal" font-family="MS Shell Dlg 2" stroke-linejoin="bevel" font-size="34.375" font-weight="400" stroke-opacity="1" stroke-linecap="square" stroke="#000000" stroke-width="1" fill="none"/>
  <g transform="matrix(0.999569,0,0,0.999569,0,0)" font-style="normal" font-family="MS Shell Dlg 2" font-size="34.375" font-weight="400" stroke="none" fill="#000000" fill-opacity="0">
   <rect width="3257" height="2205" y="0" x="0"/>
  </g>
  <g transform="matrix(0.999569,0,0,0.999569,0,0)" font-style="normal" font-family="MS Shell Dlg 2" stroke-linejoin="bevel" font-size="34.375" font-weight="400" stroke-opacity="1" stroke-linecap="square" stroke="#000000" stroke-width="1" fill="none"/>
  <g transform="matrix(0.999569,0,0,0.999569,0,0)" font-style="normal" font-family="MS Shell Dlg 2" stroke-linejoin="bevel" font-size="34.375" font-weight="400" stroke-opacity="1" stroke-linecap="square" stroke="#99a1bc" stroke-width="3.07087" fill="#a6cee3" fill-opacity="1">
   <path vector-effect="none" fill-rule="evenodd" d="M-324.651,-237.033 L-341.684,2424.7 L3583.62,2440.59 L3588.14,-221.192 L-324.651,-237.033"/>
  </g>
  <g transform="matrix(0.999569,0,0,0.999569,0,0)" font-style="normal" font-family="MS Shell Dlg 2" stroke-linejoin="bevel" font-size="34.375" font-weight="400" stroke-opacity="1" stroke-linecap="square" stroke="#000000" stroke-width="1" fill="none"/>
  <g transform="matrix(11.8059,0,0,11.8059,0,0)" font-style="normal" font-family="MS Shell Dlg 2" stroke-linejoin="bevel" font-size="34.375" font-weight="400" stroke-opacity="1" stroke-linecap="square" stroke="#000000" stroke-width="1" fill="none"/>
  <g transform="matrix(11.8059,0,0,11.8059,0,0)" font-style="normal" font-family="MS Shell Dlg 2" stroke-linejoin="bevel" font-size="34.375" font-weight="400" stroke-opacity="1" stroke-linecap="square" stroke="#000000" stroke-width="1" fill="none"/>
  <g transform="matrix(11.8059,0,0,11.8059,0,0)" font-style="normal" font-family="MS Shell Dlg 2" stroke-linejoin="bevel" font-size="34.375" font-weight="400" stroke-opacity="1" stroke-linecap="square" stroke="#000000" stroke-width="1" fill="none"/>
  <g transform="matrix(1,0,0,1,0,0)" font-style="normal" font-family="MS Shell Dlg 2" stroke-linejoin="bevel" font-size="34.375" font-weight="400" stroke-opacity="1" stroke-linecap="square" stroke="#000000" stroke-width="1" fill="none"/>
  <g transform="matrix(11.8059,0,0,11.8059,0,0)" font-style="normal" font-family="MS Shell Dlg 2" stroke-linejoin="bevel" font-size="34.375" font-weight="400" stroke-opacity="1" stroke-linecap="square" stroke="#000000" stroke-width="1" fill="none"/>
  <g transform="matrix(11.8059,0,0,11.8059,0,0)" font-style="normal" font-family="MS Shell Dlg 2" stroke-linejoin="bevel" font-size="34.375" font-weight="400" stroke-opacity="1" stroke-linecap="square" stroke="#000000" stroke-width="1" fill="none"/>
  <g transform="matrix(1,0,0,1,0,0)" font-style="normal" font-family="MS Shell Dlg 2" stroke-linejoin="bevel" font-size="34.375" font-weight="400" stroke-opacity="1" stroke-linecap="square" stroke="#000000" stroke-width="1" fill="none"/>
 </g>
 <defs/>
 <g stroke-linejoin="bevel" stroke-linecap="square" stroke="black" id="Map 1: No Data" fill-rule="evenodd" inkscape:label="Map 1: No Data" inkscape:groupmode="layer" stroke-width="1" fill="none">
  <g transform="matrix(1,0,0,1,0,0)" font-style="normal" font-family="MS Shell Dlg 2" stroke-linejoin="bevel" font-size="34.375" font-weight="400" stroke-opacity="1" stroke-linecap="square" stroke="#000000" stroke-width="1" fill="none"/>
  <g transform="matrix(1,0,0,1,0,0)" font-style="normal" font-family="MS Shell Dlg 2" stroke-linejoin="bevel" font-size="34.375" font-weight="400" stroke-opacity="1" stroke-linecap="square" stroke="#000000" stroke-width="1" fill="none"/>
  <g transform="matrix(11.8059,0,0,11.8059,0,0)" font-style="normal" font-family="MS Shell Dlg 2" stroke-linejoin="bevel" font-size="34.375" font-weight="400" stroke-opacity="1" stroke-linecap="square" stroke="#000000" stroke-width="1" fill="none"/>
  <g transform="matrix(11.8059,0,0,11.8059,0,0)" font-style="normal" font-family="MS Shell Dlg 2" stroke-linejoin="bevel" font-size="34.375" font-weight="400" stroke-opacity="1" stroke-linecap="square" stroke="#000000" stroke-width="1" fill="none"/>
  <g transform="matrix(0.999569,0,0,0.999569,0,0)" font-style="normal" font-family="MS Shell Dlg 2" font-size="34.375" font-weight="400" stroke="none" fill="#000000" fill-opacity="0">
   <rect width="3257" height="2205" y="0" x="0"/>
  </g>
  <g transform="matrix(0.999569,0,0,0.999569,0,0)" font-style="normal" font-family="MS Shell Dlg 2" stroke-linejoin="bevel" font-size="34.375" font-weight="400" stroke-opacity="1" stroke-linecap="square" stroke="#000000" stroke-width="1" fill="none"/>
  <g transform="matrix(0.999569,0,0,0.999569,0,0)" font-style="normal" font-family="MS Shell Dlg 2" stroke-linejoin="bevel" font-size="34.375" font-weight="400" stroke-opacity="1" stroke-linecap="square" stroke="#000000" stroke-width="0.590551" fill="#c2c2c2" fill-opacity="1">
   <path vector-effect="none" fill-rule="evenodd" d="M2233.75,993.533 L2323.88,1004.66 L2411.4,1032.86 L2459.86,1094.05 L2473.66,1224.49 L2375.76,1298.99 L2237.51,1321.97 L2070.41,1276.23 L1955.19,1293.48 L1851.49,1310.72 L1759.3,1327.97 L1684.4,1379.58 L1598.32,1445.99 L1550.22,1452.04 L1234.76,1408.58 L1154.02,1402.92 L1067.24,1411.78 L1009.84,1454.62 L959.268,1401.68 L969.441,1322.85 L986.742,1288.45 L1004.04,1231.13 L1021.33,1145.17 L1021.31,1070.69 L998.204,1001.95 L923.19,944.708 L871.248,910.363 L882.755,847.332 L911.581,807.211 L980.796,784.26 L1070.06,814.266 L1055.83,881.611 L1102.01,967.515 L1142.42,1064.88 L1125.15,1168.01 L1194.38,1259.63 L1326.99,1259.53 L1419.22,1225.09 L1430.36,1165.9 L1466.85,1095.64 L1494.67,1111.17 L1566.38,1130.85 L1565.88,1107.72 L1558.83,1091.44 L1536.42,1058.01 L1566.52,1096.05 L1557.32,1074.56 L1545.31,1060.13 L1543.99,1046.38 L1566.81,1026.05 L1544.55,1006.38 L1530.8,983.819 L1504.17,921.205 L1592.31,932.821 L1769.78,1008.95 L1865.62,1027.23 L2128.35,992.343 L2233.75,993.533"/>
   <path vector-effect="none" fill-rule="evenodd" d=""/>
   <path vector-effect="none" fill-rule="evenodd" d=""/>
  </g>
  <g transform="matrix(0.999569,0,0,0.999569,0,0)" font-style="normal" font-family="MS Shell Dlg 2" stroke-linejoin="bevel" font-size="34.375" font-weight="400" stroke-opacity="1" stroke-linecap="square" stroke="#000000" stroke-width="1" fill="none"/>
  <g transform="matrix(11.8059,0,0,11.8059,0,0)" font-style="normal" font-family="MS Shell Dlg 2" stroke-linejoin="bevel" font-size="34.375" font-weight="400" stroke-opacity="1" stroke-linecap="square" stroke="#000000" stroke-width="1" fill="none"/>
  <g transform="matrix(11.8059,0,0,11.8059,0,0)" font-style="normal" font-family="MS Shell Dlg 2" stroke-linejoin="bevel" font-size="34.375" font-weight="400" stroke-opacity="1" stroke-linecap="square" stroke="#000000" stroke-width="1" fill="none"/>
  <g transform="matrix(11.8059,0,0,11.8059,0,0)" font-style="normal" font-family="MS Shell Dlg 2" stroke-linejoin="bevel" font-size="34.375" font-weight="400" stroke-opacity="1" stroke-linecap="square" stroke="#000000" stroke-width="1" fill="none"/>
  <g transform="matrix(1,0,0,1,0,0)" font-style="normal" font-family="MS Shell Dlg 2" stroke-linejoin="bevel" font-size="34.375" font-weight="400" stroke-opacity="1" stroke-linecap="square" stroke="#000000" stroke-width="1" fill="none"/>
  <g transform="matrix(11.8059,0,0,11.8059,0,0)" font-style="normal" font-family="MS Shell Dlg 2" stroke-linejoin="bevel" font-size="34.375" font-weight="400" stroke-opacity="1" stroke-linecap="square" stroke="#000000" stroke-width="1" fill="none"/>
  <g transform="matrix(11.8059,0,0,11.8059,0,0)" font-style="normal" font-family="MS Shell Dlg 2" stroke-linejoin="bevel" font-size="34.375" font-weight="400" stroke-opacity="1" stroke-linecap="square" stroke="#000000" stroke-width="1" fill="none"/>
  <g transform="matrix(1,0,0,1,0,0)" font-style="normal" font-family="MS Shell Dlg 2" stroke-linejoin="bevel" font-size="34.375" font-weight="400" stroke-opacity="1" stroke-linecap="square" stroke="#000000" stroke-width="1" fill="none"/>
 </g>
 <defs/>
 <g stroke-linejoin="bevel" stroke-linecap="square" stroke="black" id="Map 1: ne_10m_admin_0_countries" fill-rule="evenodd" inkscape:label="Map 1: ne_10m_admin_0_countries" inkscape:groupmode="layer" stroke-width="1" fill="none">
  <g transform="matrix(1,0,0,1,0,0)" font-style="normal" font-family="MS Shell Dlg 2" stroke-linejoin="bevel" font-size="34.375" font-weight="400" stroke-opacity="1" stroke-linecap="square" stroke="#000000" stroke-width="1" fill="none"/>
  <g transform="matrix(1,0,0,1,0,0)" font-style="normal" font-family="MS Shell Dlg 2" stroke-linejoin="bevel" font-size="34.375" font-weight="400" stroke-opacity="1" stroke-linecap="square" stroke="#000000" stroke-width="1" fill="none"/>
  <g transform="matrix(11.8059,0,0,11.8059,0,0)" font-style="normal" font-family="MS Shell Dlg 2" stroke-linejoin="bevel" font-size="34.375" font-weight="400" stroke-opacity="1" stroke-linecap="square" stroke="#000000" stroke-width="1" fill="none"/>
  <g transform="matrix(11.8059,0,0,11.8059,0,0)" font-style="normal" font-family="MS Shell Dlg 2" stroke-linejoin="bevel" font-size="34.375" font-weight="400" stroke-opacity="1" stroke-linecap="square" stroke="#000000" stroke-width="1" fill="none"/>
  <g transform="matrix(0.999569,0,0,0.999569,0,0)" font-style="normal" font-family="MS Shell Dlg 2" font-size="34.375" font-weight="400" stroke="none" fill="#000000" fill-opacity="0">
   <rect width="3257" height="2205" y="0" x="0"/>
  </g>
  <g transform="matrix(0.999569,0,0,0.999569,0,0)" font-style="normal" font-family="MS Shell Dlg 2" stroke-linejoin="bevel" font-size="34.375" font-weight="400" stroke-opacity="1" stroke-linecap="square" stroke="#000000" stroke-width="1" fill="none"/>
  <g transform="matrix(0.999569,0,0,0.999569,0,0)" font-style="normal" font-family="MS Shell Dlg 2" stroke-linejoin="bevel" font-size="34.375" font-weight="400" stroke-opacity="1" stroke-linecap="square" stroke="#232323" stroke-width="3.07087" fill="#e05225" fill-opacity="1">
   <path vector-effect="none" fill-rule="evenodd" d="M2233.75,993.533 L2323.88,1004.66 L2411.4,1032.86 L2459.86,1094.05 L2473.66,1224.49 L2375.76,1298.99 L2237.51,1321.97 L2070.41,1276.23 L1955.19,1293.48 L1851.49,1310.72 L1759.3,1327.97 L1684.4,1379.58 L1598.32,1445.99 L1550.22,1452.04 L1234.76,1408.58 L1154.02,1402.92 L1067.24,1411.78 L1009.84,1454.62 L959.268,1401.68 L969.441,1322.85 L986.742,1288.45 L1004.04,1231.13 L1021.33,1145.17 L1021.31,1070.69 L998.204,1001.95 L923.19,944.708 L871.248,910.363 L882.755,847.332 L911.581,807.211 L980.796,784.26 L1070.06,814.266 L1055.83,881.611 L1102.01,967.515 L1142.42,1064.88 L1125.15,1168.01 L1194.38,1259.63 L1326.99,1259.53 L1419.22,1225.09 L1430.36,1165.9 L1466.85,1095.64 L1494.67,1111.17 L1566.38,1130.85 L1565.88,1107.72 L1558.83,1091.44 L1536.42,1058.01 L1566.52,1096.05 L1557.32,1074.56 L1545.31,1060.13 L1543.99,1046.38 L1566.81,1026.05 L1544.55,1006.38 L1530.8,983.819 L1504.17,921.205 L1592.31,932.821 L1769.78,1008.95 L1865.62,1027.23 L2128.35,992.343 L2233.75,993.533"/>
   <path vector-effect="none" fill-rule="evenodd" d=""/>
   <path vector-effect="none" fill-rule="evenodd" d=""/>
  </g>
  <g transform="matrix(0.999569,0,0,0.999569,0,0)" font-style="normal" font-family="MS Shell Dlg 2" stroke-linejoin="bevel" font-size="34.375" font-weight="400" stroke-opacity="1" stroke-linecap="square" stroke="#000000" stroke-width="1" fill="none"/>
  <g transform="matrix(11.8059,0,0,11.8059,0,0)" font-style="normal" font-family="MS Shell Dlg 2" stroke-linejoin="bevel" font-size="34.375" font-weight="400" stroke-opacity="1" stroke-linecap="square" stroke="#000000" stroke-width="1" fill="none"/>
  <g transform="matrix(11.8059,0,0,11.8059,0,0)" font-style="normal" font-family="MS Shell Dlg 2" stroke-linejoin="bevel" font-size="34.375" font-weight="400" stroke-opacity="1" stroke-linecap="square" stroke="#000000" stroke-width="1" fill="none"/>
  <g transform="matrix(11.8059,0,0,11.8059,0,0)" font-style="normal" font-family="MS Shell Dlg 2" stroke-linejoin="bevel" font-size="34.375" font-weight="400" stroke-opacity="1" stroke-linecap="square" stroke="#000000" stroke-width="1" fill="none"/>
  <g transform="matrix(1,0,0,1,0,0)" font-style="normal" font-family="MS Shell Dlg 2" stroke-linejoin="bevel" font-size="34.375" font-weight="400" stroke-opacity="1" stroke-linecap="square" stroke="#000000" stroke-width="1" fill="none"/>
  <g transform="matrix(11.8059,0,0,11.8059,0,0)" font-style="normal" font-family="MS Shell Dlg 2" stroke-linejoin="bevel" font-size="34.375" font-weight="400" stroke-opacity="1" stroke-linecap="square" stroke="#000000" stroke-width="1" fill="none"/>
  <g transform="matrix(11.8059,0,0,11.8059,0,0)" font-style="normal" font-family="MS Shell Dlg 2" stroke-linejoin="bevel" font-size="34.375" font-weight="400" stroke-opacity="1" stroke-linecap="square" stroke="#000000" stroke-width="1" fill="none"/>
  <g transform="matrix(1,0,0,1,0,0)" font-style="normal" font-family="MS Shell Dlg 2" stroke-linejoin="bevel" font-size="34.375" font-weight="400" stroke-opacity="1" stroke-linecap="square" stroke="#000000" stroke-width="1" fill="none"/>
 </g>
 <defs/>
 <g stroke-linejoin="bevel" stroke-linecap="square" stroke="black" id="Map 1: ne_10m_admin_0_countries (Labels)" fill-rule="evenodd" inkscape:label="Map 1: ne_10m_admin_0_countries (Labels)" inkscape:groupmode="layer" stroke-width="1" fill="none">
  <g transform="matrix(1,0,0,1,0,0)" font-style="normal" font-family="MS Shell Dlg 2" stroke-linejoin="bevel" font-size="34.375" font-weight="400" stroke-opacity="1" stroke-linecap="square" stroke="#000000" stroke-width="1" fill="none"/>
  <g transform="matrix(1,0,0,1,0,0)" font-style="normal" font-family="MS Shell Dlg 2" stroke-linejoin="bevel" font-size="34.375" font-weight="400" stroke-opacity="1" stroke-linecap="square" stroke="#000000" stroke-width="1" fill="none"/>
  <g transform="matrix(11.8059,0,0,11.8059,0,0)" font-style="normal" font-family="MS Shell Dlg 2" stroke-linejoin="bevel" font-size="34.375" font-weight="400" stroke-opacity="1" stroke-linecap="square" stroke="#000000" stroke-width="1" fill="none"/>
  <g transform="matrix(11.8059,0,0,11.8059,0,0)" font-style="normal" font-family="MS Shell Dlg 2" stroke-linejoin="bevel" font-size="34.375" font-weight="400" stroke-opacity="1" stroke-linecap="square" stroke="#000000" stroke-width="1" fill="none"/>
  <g transform="matrix(0.999569,0,0,0.999569,0,0)" font-style="normal" font-family="MS Shell Dlg 2" font-size="34.375" font-weight="400" stroke="none" fill="#000000" fill-opacity="0">
   <rect width="3257" height="2205" y="0" x="0"/>
  </g>
  <g transform="matrix(0.999569,0,0,0.999569,0,0)" font-style="normal" font-family="MS Shell Dlg 2" stroke-linejoin="bevel" font-size="34.375" font-weight="400" stroke-opacity="1" stroke-linecap="square" stroke="#000000" stroke-width="1" fill="none"/>
  <g transform="matrix(0.319862,0,0,0.319862,1070.63,809.517)" font-style="normal" font-family="MS Shell Dlg 2" stroke-linejoin="bevel" font-size="34.375" font-weight="400" stroke-opacity="1" stroke-linecap="square" stroke="#000000" stroke-width="1" fill="none"/>
  <g transform="matrix(0.999569,0,0,0.999569,1070.63,809.517)" font-style="normal" font-family="MS Shell Dlg 2" font-size="34.375" font-weight="400" stroke="none" fill="#000000" fill-opacity="1">
   <path vector-effect="none" fill-rule="nonzero" d="M29.7065,1.09424 C25.7619,1.09424 22.1347,0.432292 18.825,-0.891602 C15.5152,-2.21549 12.658,-4.18783 10.2534,-6.80859 C7.8488,-9.42936 5.98454,-12.6986 4.66064,-16.6162 C3.33675,-20.5339 2.6748,-25.0324 2.6748,-30.1118 C2.6748,-35.1642 3.31649,-39.5682 4.59985,-43.3237 C5.88322,-47.0793 7.75423,-50.3485 10.2129,-53.1313 C12.6175,-55.8332 15.4679,-57.8933 18.7642,-59.3118 C22.0604,-60.7302 25.7484,-61.4395 29.8281,-61.4395 C31.8545,-61.4395 33.7525,-61.2909 35.5222,-60.9937 C37.2919,-60.6965 38.9333,-60.3182 40.4463,-59.8589 C41.7432,-59.4536 43.0738,-58.947 44.4382,-58.3391 C45.8027,-57.7312 47.1468,-57.0625 48.4707,-56.333 L48.4707,-46.647 L47.8223,-46.647 C47.1198,-47.2954 46.2147,-48.0789 45.1069,-48.9976 C43.9992,-49.9162 42.6483,-50.8213 41.0542,-51.7129 C39.5142,-52.5505 37.839,-53.2394 36.0288,-53.7798 C34.2186,-54.3201 32.1247,-54.5903 29.7471,-54.5903 C27.1803,-54.5903 24.7487,-54.0635 22.4521,-53.0098 C20.1556,-51.9561 18.1427,-50.4025 16.4136,-48.3491 C14.7114,-46.2957 13.3875,-43.7155 12.4419,-40.6084 C11.4963,-37.5013 11.0234,-34.0024 11.0234,-30.1118 C11.0234,-25.978 11.5233,-22.4184 12.5229,-19.4329 C13.5226,-16.4473 14.887,-13.9279 16.6162,-11.8745 C18.2913,-9.87516 20.2637,-8.3689 22.5332,-7.35571 C24.8027,-6.34253 27.2074,-5.83594 29.7471,-5.83594 C32.0706,-5.83594 34.2186,-6.11963 36.1909,-6.68701 C38.1632,-7.25439 39.9194,-7.97038 41.4595,-8.83496 C42.9455,-9.67253 44.2288,-10.5304 45.3096,-11.4084 C46.3903,-12.2865 47.2414,-13.0363 47.8628,-13.6577 L48.4707,-13.6577 L48.4707,-4.09326 C47.1468,-3.47184 45.8972,-2.87744 44.7219,-2.31006 C43.5466,-1.74268 42.1214,-1.1888 40.4463,-0.648438 C38.6901,-0.0810547 37.0623,0.351237 35.5627,0.648438 C34.0632,0.945638 32.1112,1.09424 29.7065,1.09424 M80.8008,-11.145 L80.8008,-23.7085 C78.9906,-23.5464 76.7008,-23.3235 73.9314,-23.0398 C71.162,-22.7561 68.9263,-22.3576 67.2241,-21.8442 C65.1978,-21.2228 63.5226,-20.2704 62.1987,-18.9871 C60.8748,-17.7037 60.2129,-15.9137 60.2129,-13.6172 C60.2129,-11.0234 60.9424,-9.06462 62.4014,-7.74072 C63.8604,-6.41683 65.9948,-5.75488 68.8047,-5.75488 C71.2093,-5.75488 73.3843,-6.27498 75.3296,-7.31519 C77.2749,-8.35539 79.0986,-9.632 80.8008,-11.145 M80.8008,-4.82275 C80.1794,-4.36344 79.3486,-3.72176 78.3083,-2.89771 C77.2681,-2.07365 76.2617,-1.41846 75.2891,-0.932129 C73.9382,-0.229655 72.6345,0.31071 71.3782,0.688965 C70.1218,1.06722 68.3589,1.25635 66.0894,1.25635 C64.2251,1.25635 62.4554,0.905111 60.7803,0.202637 C59.1051,-0.499837 57.6326,-1.486 56.3628,-2.75586 C55.147,-3.9987 54.1743,-5.53198 53.4448,-7.35571 C52.7153,-9.17944 52.3506,-11.1045 52.3506,-13.1309 C52.3506,-16.265 53.0125,-18.933 54.3364,-21.135 C55.6603,-23.337 57.7542,-25.0864 60.6182,-26.3833 C63.1579,-27.5451 66.1569,-28.3489 69.6152,-28.7947 C73.0736,-29.2405 76.8021,-29.5715 80.8008,-29.7876 L80.8008,-31.2466 C80.8008,-33.0298 80.5306,-34.4685 79.9902,-35.5627 C79.4499,-36.657 78.6934,-37.5013 77.7207,-38.0957 C76.748,-38.7171 75.5592,-39.1292 74.1543,-39.3318 C72.7493,-39.5344 71.3039,-39.6357 69.8179,-39.6357 C68.0617,-39.6357 65.9948,-39.3723 63.6172,-38.8455 C61.2396,-38.3186 58.862,-37.5553 56.4844,-36.5557 L56.0386,-36.5557 L56.0386,-44.2964 C57.4435,-44.7017 59.4564,-45.1475 62.0771,-45.6338 C64.6979,-46.1201 67.2917,-46.3633 69.8584,-46.3633 C72.9655,-46.3633 75.5863,-46.1201 77.7207,-45.6338 C79.8551,-45.1475 81.7734,-44.2694 83.4756,-42.9995 C85.1237,-41.7567 86.353,-40.1491 87.1636,-38.1768 C87.9741,-36.2044 88.3794,-33.7998 88.3794,-30.9629 L88.3794,0 L80.8008,0 L80.8008,-4.82275 M135.095,-45.269 L110.738,16.6973 L102.592,16.6973 L110.697,-2.18848 L94.2432,-45.269 L102.47,-45.269 L114.831,-11.7529 L127.151,-45.269 L135.095,-45.269 M191.9,0 L191.9,-26.1807 C191.9,-28.2611 191.819,-30.1861 191.657,-31.9558 C191.495,-33.7255 191.157,-35.1102 190.644,-36.1099 C190.104,-37.1906 189.334,-37.9876 188.334,-38.501 C187.334,-39.0143 185.983,-39.271 184.281,-39.271 C182.714,-39.271 181.032,-38.7914 179.236,-37.8323 C177.439,-36.8731 175.581,-35.4884 173.663,-33.6782 C173.69,-33.2189 173.724,-32.6718 173.764,-32.0369 C173.805,-31.4019 173.825,-30.6522 173.825,-29.7876 L173.825,0 L166.206,0 L166.206,-26.1807 C166.206,-28.2611 166.125,-30.1861 165.963,-31.9558 C165.801,-33.7255 165.463,-35.1102 164.95,-36.1099 C164.409,-37.1906 163.639,-37.9876 162.64,-38.501 C161.64,-39.0143 160.289,-39.271 158.587,-39.271 C156.939,-39.271 155.21,-38.7576 153.399,-37.731 C151.589,-36.7043 149.833,-35.3939 148.131,-33.7998 L148.131,0 L140.512,0 L140.512,-45.269 L148.131,-45.269 L148.131,-40.2437 C150.13,-42.243 152.109,-43.7898 154.068,-44.884 C156.027,-45.9783 158.182,-46.5254 160.532,-46.5254 C163.207,-46.5254 165.578,-45.9175 167.645,-44.7017 C169.712,-43.4858 171.285,-41.4865 172.366,-38.7036 C174.663,-41.2703 176.905,-43.2157 179.094,-44.5396 C181.282,-45.8634 183.66,-46.5254 186.227,-46.5254 C188.172,-46.5254 189.942,-46.2214 191.536,-45.6135 C193.13,-45.0056 194.521,-44.0262 195.71,-42.6753 C196.926,-41.2974 197.865,-39.5817 198.527,-37.5283 C199.189,-35.4749 199.52,-32.8947 199.52,-29.7876 L199.52,0 L191.9,0 M235.801,-11.145 L235.801,-23.7085 C233.991,-23.5464 231.701,-23.3235 228.931,-23.0398 C226.162,-22.7561 223.926,-22.3576 222.224,-21.8442 C220.198,-21.2228 218.523,-20.2704 217.199,-18.9871 C215.875,-17.7037 215.213,-15.9137 215.213,-13.6172 C215.213,-11.0234 215.942,-9.06462 217.401,-7.74072 C218.86,-6.41683 220.995,-5.75488 223.805,-5.75488 C226.209,-5.75488 228.384,-6.27498 230.33,-7.31519 C232.275,-8.35539 234.099,-9.632 235.801,-11.145 M235.801,-4.82275 C235.179,-4.36344 234.349,-3.72176 233.308,-2.89771 C232.268,-2.07365 231.262,-1.41846 230.289,-0.932129 C228.938,-0.229655 227.635,0.31071 226.378,0.688965 C225.122,1.06722 223.359,1.25635 221.089,1.25635 C219.225,1.25635 217.455,0.905111 215.78,0.202637 C214.105,-0.499837 212.633,-1.486 211.363,-2.75586 C210.147,-3.9987 209.174,-5.53198 208.445,-7.35571 C207.715,-9.17944 207.351,-11.1045 207.351,-13.1309 C207.351,-16.265 208.013,-18.933 209.336,-21.135 C210.66,-23.337 212.754,-25.0864 215.618,-26.3833 C218.158,-27.5451 221.157,-28.3489 224.615,-28.7947 C228.074,-29.2405 231.802,-29.5715 235.801,-29.7876 L235.801,-31.2466 C235.801,-33.0298 235.531,-34.4685 234.99,-35.5627 C234.45,-36.657 233.693,-37.5013 232.721,-38.0957 C231.748,-38.7171 230.559,-39.1292 229.154,-39.3318 C227.749,-39.5344 226.304,-39.6357 224.818,-39.6357 C223.062,-39.6357 220.995,-39.3723 218.617,-38.8455 C216.24,-38.3186 213.862,-37.5553 211.484,-36.5557 L211.039,-36.5557 L211.039,-44.2964 C212.444,-44.7017 214.456,-45.1475 217.077,-45.6338 C219.698,-46.1201 222.292,-46.3633 224.858,-46.3633 C227.965,-46.3633 230.586,-46.1201 232.721,-45.6338 C234.855,-45.1475 236.773,-44.2694 238.476,-42.9995 C240.124,-41.7567 241.353,-40.1491 242.164,-38.1768 C242.974,-36.2044 243.379,-33.7998 243.379,-30.9629 L243.379,0 L235.801,0 L235.801,-4.82275 M290.095,0 L282.476,0 L282.476,-25.7754 C282.476,-27.8558 282.374,-29.7944 282.172,-31.5911 C281.969,-33.3878 281.584,-34.8265 281.017,-35.9072 C280.395,-37.042 279.531,-37.8863 278.423,-38.4402 C277.315,-38.9941 275.802,-39.271 273.884,-39.271 C271.993,-39.271 270.04,-38.7644 268.028,-37.7512 C266.015,-36.738 264.049,-35.4209 262.131,-33.7998 L262.131,0 L254.512,0 L254.512,-45.269 L262.131,-45.269 L262.131,-40.2437 C264.4,-42.27 266.643,-43.8236 268.858,-44.9043 C271.074,-45.985 273.411,-46.5254 275.87,-46.5254 C280.328,-46.5254 283.813,-45.0597 286.326,-42.1282 C288.838,-39.1967 290.095,-34.9481 290.095,-29.3823 L290.095,0 M348.194,0 L324.769,0 L324.769,-6.16016 L332.469,-6.16016 L332.469,-54.1851 L324.769,-54.1851 L324.769,-60.3452 L348.194,-60.3452 L348.194,-54.1851 L340.494,-54.1851 L340.494,-6.16016 L348.194,-6.16016 L348.194,0 M369.751,1.09424 C366.725,1.09424 363.895,0.688965 361.26,-0.121582 C358.626,-0.932129 356.444,-1.79671 354.715,-2.71533 L354.715,-11.2666 L355.121,-11.2666 C355.769,-10.7533 356.532,-10.1859 357.41,-9.56445 C358.288,-8.94303 359.457,-8.2946 360.916,-7.61914 C362.213,-7.02474 363.638,-6.49788 365.192,-6.03857 C366.745,-5.57926 368.36,-5.34961 370.035,-5.34961 C371.25,-5.34961 372.547,-5.49146 373.925,-5.77515 C375.303,-6.05884 376.33,-6.41683 377.005,-6.84912 C377.951,-7.47054 378.633,-8.13249 379.052,-8.83496 C379.471,-9.53743 379.68,-10.5911 379.68,-11.9961 C379.68,-13.8063 379.187,-15.1707 378.201,-16.0894 C377.215,-17.008 375.465,-17.778 372.953,-18.3994 C371.98,-18.6426 370.71,-18.9263 369.143,-19.2505 C367.576,-19.5747 366.131,-19.9259 364.807,-20.3042 C361.348,-21.3039 358.836,-22.8507 357.269,-24.9446 C355.701,-27.0385 354.918,-29.5715 354.918,-32.5435 C354.918,-36.6232 356.458,-39.9465 359.538,-42.5132 C362.618,-45.0799 366.711,-46.3633 371.818,-46.3633 C374.331,-46.3633 376.857,-46.0526 379.396,-45.4312 C381.936,-44.8097 384.071,-44.0262 385.8,-43.0806 L385.8,-34.9346 L385.395,-34.9346 C383.449,-36.4746 381.281,-37.6904 378.89,-38.582 C376.499,-39.4736 374.087,-39.9194 371.656,-39.9194 C369.143,-39.9194 367.022,-39.3926 365.293,-38.3389 C363.564,-37.2852 362.699,-35.6911 362.699,-33.5566 C362.699,-31.6654 363.213,-30.2537 364.239,-29.3215 C365.266,-28.3894 366.914,-27.6261 369.184,-27.0317 C370.318,-26.7345 371.581,-26.4441 372.973,-26.1604 C374.364,-25.8767 375.83,-25.5457 377.37,-25.1675 C380.72,-24.3299 383.24,-22.9385 384.928,-20.9932 C386.617,-19.0479 387.461,-16.4001 387.461,-13.0498 C387.461,-11.1045 387.076,-9.2605 386.306,-7.51782 C385.536,-5.77515 384.408,-4.28239 382.922,-3.03955 C381.301,-1.68864 379.471,-0.661947 377.431,0.0405273 C375.391,0.743001 372.831,1.09424 369.751,1.09424 M406.386,0 L396.7,0 L396.7,-11.5503 L406.386,-11.5503 L406.386,0"/>
  </g>
  <g transform="matrix(0.319862,0,0,0.319862,1070.63,809.517)" font-style="normal" font-family="MS Shell Dlg 2" stroke-linejoin="bevel" font-size="34.375" font-weight="400" stroke-opacity="1" stroke-linecap="square" stroke="#000000" stroke-width="1" fill="none"/>
  <g transform="matrix(0.999569,0,0,0.999569,0,0)" font-style="normal" font-family="MS Shell Dlg 2" stroke-linejoin="bevel" font-size="34.375" font-weight="400" stroke-opacity="1" stroke-linecap="square" stroke="#000000" stroke-width="1" fill="none"/>
  <g transform="matrix(11.8059,0,0,11.8059,0,0)" font-style="normal" font-family="MS Shell Dlg 2" stroke-linejoin="bevel" font-size="34.375" font-weight="400" stroke-opacity="1" stroke-linecap="square" stroke="#000000" stroke-width="1" fill="none"/>
  <g transform="matrix(11.8059,0,0,11.8059,0,0)" font-style="normal" font-family="MS Shell Dlg 2" stroke-linejoin="bevel" font-size="34.375" font-weight="400" stroke-opacity="1" stroke-linecap="square" stroke="#000000" stroke-width="1" fill="none"/>
  <g transform="matrix(11.8059,0,0,11.8059,0,0)" font-style="normal" font-family="MS Shell Dlg 2" stroke-linejoin="bevel" font-size="34.375" font-weight="400" stroke-opacity="1" stroke-linecap="square" stroke="#000000" stroke-width="1" fill="none"/>
  <g transform="matrix(1,0,0,1,0,0)" font-style="normal" font-family="MS Shell Dlg 2" stroke-linejoin="bevel" font-size="34.375" font-weight="400" stroke-opacity="1" stroke-linecap="square" stroke="#000000" stroke-width="1" fill="none"/>
  <g transform="matrix(11.8059,0,0,11.8059,0,0)" font-style="normal" font-family="MS Shell Dlg 2" stroke-linejoin="bevel" font-size="34.375" font-weight="400" stroke-opacity="1" stroke-linecap="square" stroke="#000000" stroke-width="1" fill="none"/>
  <g transform="matrix(11.8059,0,0,11.8059,0,0)" font-style="normal" font-family="MS Shell Dlg 2" stroke-linejoin="bevel" font-size="34.375" font-weight="400" stroke-opacity="1" stroke-linecap="square" stroke="#000000" stroke-width="1" fill="none"/>
  <g transform="matrix(1,0,0,1,0,0)" font-style="normal" font-family="MS Shell Dlg 2" stroke-linejoin="bevel" font-size="34.375" font-weight="400" stroke-opacity="1" stroke-linecap="square" stroke="#000000" stroke-width="1" fill="none"/>
 </g>
 <defs/>
 <g stroke-linejoin="bevel" stroke-linecap="square" stroke="black" id="Labels, Shape" fill-rule="evenodd" inkscape:label="Labels, Shape" inkscape:groupmode="layer" stroke-width="1" fill="none">
  <g transform="matrix(1,0,0,1,0,0)" font-style="normal" font-family="MS Shell Dlg 2" stroke-linejoin="bevel" font-size="34.375" font-weight="400" stroke-opacity="1" stroke-linecap="square" stroke="#000000" stroke-width="1" fill="none"/>
  <g transform="matrix(1,0,0,1,0,0)" font-style="normal" font-family="MS Shell Dlg 2" stroke-linejoin="bevel" font-size="34.375" font-weight="400" stroke-opacity="1" stroke-linecap="square" stroke="#000000" stroke-width="1" fill="none"/>
  <g transform="matrix(11.8059,0,0,11.8059,200.364,1708.66)" font-style="normal" font-family="MS Shell Dlg 2" stroke-linejoin="bevel" font-size="34.375" font-weight="400" stroke-opacity="1" stroke-linecap="square" stroke="#000000" stroke-width="1" fill="none"/>
  <g transform="matrix(0.999569,0,0,0.999569,200.364,1708.66)" font-style="normal" font-family="MS Shell Dlg 2" stroke-linejoin="bevel" font-size="34.375" font-weight="400" stroke-opacity="1" stroke-linecap="square" stroke="#000000" stroke-width="1" fill="none"/>
  <g transform="matrix(11.8059,0,0,11.8059,200.364,1708.66)" font-style="normal" font-family="MS Shell Dlg 2" stroke-linejoin="bevel" font-size="41.6667" font-weight="400" stroke-opacity="1" stroke-linecap="square" stroke="#000000" stroke-width="1" fill="none"/>
  <g transform="matrix(11.8059,0,0,11.8059,200.364,1708.66)" font-style="normal" font-family="MS Shell Dlg 2" stroke-linejoin="bevel" font-size="41.6667" font-weight="400" stroke-opacity="1" stroke-linecap="square" stroke="#000000" stroke-width="1" fill="none"/>
  <g transform="matrix(0.999569,0,0,0.999569,200.364,1708.66)" font-style="normal" font-family="MS Shell Dlg 2" stroke-linejoin="bevel" font-size="34.375" font-weight="400" stroke-opacity="1" stroke-linecap="square" stroke="#000000" stroke-width="1" fill="none"/>
  <g transform="matrix(11.8059,0,0,11.8059,200.364,1708.66)" font-style="normal" font-family="MS Shell Dlg 2" stroke-linejoin="bevel" font-size="34.375" font-weight="400" stroke-opacity="1" stroke-linecap="square" stroke="#000000" stroke-width="1" fill="none"/>
  <g transform="matrix(11.8059,0,0,11.8059,200.364,1708.66)" font-style="normal" font-family="MS Shell Dlg 2" stroke-linejoin="bevel" font-size="34.375" font-weight="400" stroke-opacity="1" stroke-linecap="square" stroke="#000000" stroke-width="1" fill="none"/>
  <g transform="matrix(11.8059,0,0,11.8059,66.7879,1853.36)" font-style="normal" font-family="MS Shell Dlg 2" stroke-linejoin="bevel" font-size="34.375" font-weight="400" stroke-opacity="1" stroke-linecap="square" stroke="#000000" stroke-width="1" fill="none"/>
  <g transform="matrix(0.999569,0,0,0.999569,66.7879,1853.36)" font-style="normal" font-family="MS Shell Dlg 2" stroke-linejoin="miter" font-size="34.375" font-weight="400" stroke-opacity="1" stroke-linecap="square" stroke-miterlimit="2" stroke="#000000" stroke-width="3.54331" fill="#d5c1a8" fill-opacity="1">
   <path vector-effect="none" fill-rule="evenodd" d="M0,0 L606.918,0 L606.918,300.675 L0,300.675 L0,0"/>
  </g>
  <g transform="matrix(11.8059,0,0,11.8059,66.7879,1853.36)" font-style="normal" font-family="MS Shell Dlg 2" stroke-linejoin="bevel" font-size="34.375" font-weight="400" stroke-opacity="1" stroke-linecap="square" stroke="#000000" stroke-width="1" fill="none"/>
  <g transform="matrix(11.8059,0,0,11.8059,66.7879,1853.36)" font-style="normal" font-family="MS Shell Dlg 2" stroke-linejoin="bevel" font-size="34.375" font-weight="400" stroke-opacity="1" stroke-linecap="square" stroke="#000000" stroke-width="1" fill="none"/>
  <g transform="matrix(11.8059,0,0,11.8059,172.535,1903.45)" font-style="normal" font-family="MS Shell Dlg 2" stroke-linejoin="bevel" font-size="34.375" font-weight="400" stroke-opacity="1" stroke-linecap="square" stroke="#000000" stroke-width="1" fill="none"/>
  <g transform="matrix(0.999569,0,0,0.999569,172.535,1903.45)" font-style="normal" font-family="MS Shell Dlg 2" stroke-linejoin="bevel" font-size="34.375" font-weight="400" stroke-opacity="1" stroke-linecap="square" stroke="#000000" stroke-width="1" fill="none"/>
  <g transform="matrix(11.8059,0,0,11.8059,172.535,1903.45)" font-style="normal" font-family="MS Shell Dlg 2" stroke-linejoin="bevel" font-size="62.5" font-weight="400" stroke-opacity="1" stroke-linecap="square" stroke="#000000" stroke-width="1" fill="none"/>
  <g transform="matrix(1.18059,0,0,1.18059,172.535,1903.45)" font-style="normal" font-family="MS Shell Dlg 2" stroke-linejoin="bevel" font-size="53" font-weight="400" stroke-opacity="1" stroke-linecap="square" stroke="#000000" stroke-width="1" fill="none">
   <text font-style="normal" font-family="MS Shell Dlg 2" font-size="53" font-weight="400" y="103.5" stroke="none" x="41.7813" fill="#000000" fill-opacity="1" xml:space="preserve">Tariff: 22%</text>
  </g>
  <g transform="matrix(11.8059,0,0,11.8059,172.535,1903.45)" font-style="normal" font-family="MS Shell Dlg 2" stroke-linejoin="bevel" font-size="62.5" font-weight="400" stroke-opacity="1" stroke-linecap="square" stroke="#000000" stroke-width="1" fill="none"/>
  <g transform="matrix(0.999569,0,0,0.999569,172.535,1903.45)" font-style="normal" font-family="MS Shell Dlg 2" stroke-linejoin="bevel" font-size="34.375" font-weight="400" stroke-opacity="1" stroke-linecap="square" stroke="#000000" stroke-width="1" fill="none"/>
  <g transform="matrix(11.8059,0,0,11.8059,172.535,1903.45)" font-style="normal" font-family="MS Shell Dlg 2" stroke-linejoin="bevel" font-size="34.375" font-weight="400" stroke-opacity="1" stroke-linecap="square" stroke="#000000" stroke-width="1" fill="none"/>
  <g transform="matrix(11.8059,0,0,11.8059,172.535,1903.45)" font-style="normal" font-family="MS Shell Dlg 2" stroke-linejoin="bevel" font-size="34.375" font-weight="400" stroke-opacity="1" stroke-linecap="square" stroke="#000000" stroke-width="1" fill="none"/>
  <g transform="matrix(1,0,0,1,0,0)" font-style="normal" font-family="MS Shell Dlg 2" stroke-linejoin="bevel" font-size="34.375" font-weight="400" stroke-opacity="1" stroke-linecap="square" stroke="#000000" stroke-width="1" fill="none"/>
 </g>
</svg>
