<?xml version='1.0' encoding='UTF-8' standalone='no'?>
<svg xmlns="http://www.w3.org/2000/svg" width="275.759mm" height="186.605mm" viewBox="0 0 3257 2204" baseProfile="tiny" xmlns:inkscape="http://www.inkscape.org/namespaces/inkscape" version="1.2" xmlns:xlink="http://www.w3.org/1999/xlink">
 <defs/>
 <g stroke-linejoin="bevel" stroke-linecap="square" stroke="black" id="Page" fill-rule="evenodd" inkscape:label="Page" inkscape:groupmode="layer" stroke-width="1" fill="none">
  <g transform="matrix(1,0,0,1,0,0)" font-style="normal" font-family="MS Shell Dlg 2" stroke-linejoin="bevel" font-size="34.375" font-weight="400" stroke-opacity="1" stroke-linecap="square" stroke="#000000" stroke-width="1" fill="none"/>
  <g transform="matrix(1,0,0,1,0,0)" font-style="normal" font-family="MS Shell Dlg 2" stroke-linejoin="bevel" font-size="34.375" font-weight="400" stroke-opacity="1" stroke-linecap="square" stroke="#000000" stroke-width="1" fill="none"/>
  <g transform="matrix(11.8059,0,0,11.8059,-150.273,-139.141)" font-style="normal" font-family="MS Shell Dlg 2" stroke-linejoin="bevel" font-size="34.375" font-weight="400" stroke-opacity="1" stroke-linecap="square" stroke="#000000" stroke-width="1" fill="none"/>
  <g transform="matrix(0.999569,0,0,0.999569,-150.273,-139.141)" font-style="normal" font-family="MS Shell Dlg 2" stroke-linejoin="bevel" font-size="34.375" font-weight="400" stroke-opacity="1" stroke-linecap="square" stroke="#000000" stroke-width="1" fill="none"/>
  <g transform="matrix(0.999569,0,0,0.999569,-150.273,-139.141)" font-style="normal" font-family="MS Shell Dlg 2" font-size="34.375" font-weight="400" stroke="none" fill="#f7e3cf" fill-opacity="1">
   <path vector-effect="none" fill-rule="evenodd" d="M-2,-2 L3510,-2 L3510,2483 L-2,2483 L-2,-2"/>
  </g>
  <g transform="matrix(0.999569,0,0,0.999569,-150.273,-139.141)" font-style="normal" font-family="MS Shell Dlg 2" stroke-linejoin="bevel" font-size="34.375" font-weight="400" stroke-opacity="1" stroke-linecap="square" stroke="#000000" stroke-width="1" fill="none"/>
  <g transform="matrix(11.8059,0,0,11.8059,-150.273,-139.141)" font-style="normal" font-family="MS Shell Dlg 2" stroke-linejoin="bevel" font-size="34.375" font-weight="400" stroke-opacity="1" stroke-linecap="square" stroke="#000000" stroke-width="1" fill="none"/>
  <g transform="matrix(11.8059,0,0,11.8059,-150.273,-139.141)" font-style="normal" font-family="MS Shell Dlg 2" stroke-linejoin="bevel" font-size="34.375" font-weight="400" stroke-opacity="1" stroke-linecap="square" stroke="#000000" stroke-width="1" fill="none"/>
  <g transform="matrix(1,0,0,1,0,0)" font-style="normal" font-family="MS Shell Dlg 2" stroke-linejoin="bevel" font-size="34.375" font-weight="400" stroke-opacity="1" stroke-linecap="square" stroke="#000000" stroke-width="1" fill="none"/>
 </g>
 <defs/>
 <g stroke-linejoin="bevel" stroke-linecap="square" stroke="black" id="Map 2: Background" fill-rule="evenodd" inkscape:label="Map 2: Background" inkscape:groupmode="layer" stroke-width="1" fill="none">
  <g transform="matrix(1,0,0,1,0,0)" font-style="normal" font-family="MS Shell Dlg 2" stroke-linejoin="bevel" font-size="34.375" font-weight="400" stroke-opacity="1" stroke-linecap="square" stroke="#000000" stroke-width="1" fill="none"/>
  <g transform="matrix(1,0,0,1,0,0)" font-style="normal" font-family="MS Shell Dlg 2" stroke-linejoin="bevel" font-size="34.375" font-weight="400" stroke-opacity="1" stroke-linecap="square" stroke="#000000" stroke-width="1" fill="none"/>
  <g transform="matrix(11.8059,0,0,11.8059,0,0)" font-style="normal" font-family="MS Shell Dlg 2" stroke-linejoin="bevel" font-size="34.375" font-weight="400" stroke-opacity="1" stroke-linecap="square" stroke="#000000" stroke-width="1" fill="none"/>
  <g transform="matrix(11.8059,0,0,11.8059,0,0)" font-style="normal" font-family="MS Shell Dlg 2" font-size="34.375" font-weight="400" stroke="none" fill="#ffffff" fill-opacity="1">
   <path vector-effect="none" fill-rule="evenodd" d="M0,0 L275.786,0 L275.786,186.686 L0,186.686 L0,0"/>
  </g>
  <g transform="matrix(11.8059,0,0,11.8059,0,0)" font-style="normal" font-family="MS Shell Dlg 2" stroke-linejoin="bevel" font-size="34.375" font-weight="400" stroke-opacity="1" stroke-linecap="square" stroke="#000000" stroke-width="1" fill="none"/>
  <g transform="matrix(11.8059,0,0,11.8059,0,0)" font-style="normal" font-family="MS Shell Dlg 2" stroke-linejoin="bevel" font-size="34.375" font-weight="400" stroke-opacity="1" stroke-linecap="square" stroke="#000000" stroke-width="1" fill="none"/>
  <g transform="matrix(11.8059,0,0,11.8059,0,0)" font-style="normal" font-family="MS Shell Dlg 2" stroke-linejoin="bevel" font-size="34.375" font-weight="400" stroke-opacity="1" stroke-linecap="square" stroke="#000000" stroke-width="1" fill="none"/>
  <g transform="matrix(11.8059,0,0,11.8059,0,0)" font-style="normal" font-family="MS Shell Dlg 2" stroke-linejoin="bevel" font-size="34.375" font-weight="400" stroke-opacity="1" stroke-linecap="square" stroke="#000000" stroke-width="1" fill="none"/>
  <g transform="matrix(1,0,0,1,0,0)" font-style="normal" font-family="MS Shell Dlg 2" stroke-linejoin="bevel" font-size="34.375" font-weight="400" stroke-opacity="1" stroke-linecap="square" stroke="#000000" stroke-width="1" fill="none"/>
  <g transform="matrix(11.8059,0,0,11.8059,0,0)" font-style="normal" font-family="MS Shell Dlg 2" stroke-linejoin="bevel" font-size="34.375" font-weight="400" stroke-opacity="1" stroke-linecap="square" stroke="#000000" stroke-width="1" fill="none"/>
  <g transform="matrix(11.8059,0,0,11.8059,0,0)" font-style="normal" font-family="MS Shell Dlg 2" stroke-linejoin="bevel" font-size="34.375" font-weight="400" stroke-opacity="1" stroke-linecap="square" stroke="#000000" stroke-width="1" fill="none"/>
  <g transform="matrix(1,0,0,1,0,0)" font-style="normal" font-family="MS Shell Dlg 2" stroke-linejoin="bevel" font-size="34.375" font-weight="400" stroke-opacity="1" stroke-linecap="square" stroke="#000000" stroke-width="1" fill="none"/>
 </g>
 <defs/>
 <g stroke-linejoin="bevel" stroke-linecap="square" stroke="black" id="Map 2: Ocean" fill-rule="evenodd" inkscape:label="Map 2: Ocean" inkscape:groupmode="layer" stroke-width="1" fill="none">
  <g transform="matrix(1,0,0,1,0,0)" font-style="normal" font-family="MS Shell Dlg 2" stroke-linejoin="bevel" font-size="34.375" font-weight="400" stroke-opacity="1" stroke-linecap="square" stroke="#000000" stroke-width="1" fill="none"/>
  <g transform="matrix(1,0,0,1,0,0)" font-style="normal" font-family="MS Shell Dlg 2" stroke-linejoin="bevel" font-size="34.375" font-weight="400" stroke-opacity="1" stroke-linecap="square" stroke="#000000" stroke-width="1" fill="none"/>
  <g transform="matrix(11.8059,0,0,11.8059,0,0)" font-style="normal" font-family="MS Shell Dlg 2" stroke-linejoin="bevel" font-size="34.375" font-weight="400" stroke-opacity="1" stroke-linecap="square" stroke="#000000" stroke-width="1" fill="none"/>
  <g transform="matrix(11.8059,0,0,11.8059,0,0)" font-style="normal" font-family="MS Shell Dlg 2" stroke-linejoin="bevel" font-size="34.375" font-weight="400" stroke-opacity="1" stroke-linecap="square" stroke="#000000" stroke-width="1" fill="none"/>
  <g transform="matrix(0.999569,0,0,0.999569,0,0)" font-style="normal" font-family="MS Shell Dlg 2" font-size="34.375" font-weight="400" stroke="none" fill="#000000" fill-opacity="0">
   <rect width="3257" height="2205" y="0" x="0"/>
  </g>
  <g transform="matrix(0.999569,0,0,0.999569,0,0)" font-style="normal" font-family="MS Shell Dlg 2" stroke-linejoin="bevel" font-size="34.375" font-weight="400" stroke-opacity="1" stroke-linecap="square" stroke="#000000" stroke-width="1" fill="none"/>
  <g transform="matrix(0.999569,0,0,0.999569,0,0)" font-style="normal" font-family="MS Shell Dlg 2" stroke-linejoin="bevel" font-size="34.375" font-weight="400" stroke-opacity="1" stroke-linecap="square" stroke="#99a1bc" stroke-width="3.07087" fill="#a6cee3" fill-opacity="1">
   <path vector-effect="none" fill-rule="evenodd" d="M-350.034,-219.023 L-323.362,2446.35 L3582.42,2427.04 L3584.79,-235.434 L-350.034,-219.023"/>
  </g>
  <g transform="matrix(0.999569,0,0,0.999569,0,0)" font-style="normal" font-family="MS Shell Dlg 2" stroke-linejoin="bevel" font-size="34.375" font-weight="400" stroke-opacity="1" stroke-linecap="square" stroke="#000000" stroke-width="1" fill="none"/>
  <g transform="matrix(11.8059,0,0,11.8059,0,0)" font-style="normal" font-family="MS Shell Dlg 2" stroke-linejoin="bevel" font-size="34.375" font-weight="400" stroke-opacity="1" stroke-linecap="square" stroke="#000000" stroke-width="1" fill="none"/>
  <g transform="matrix(11.8059,0,0,11.8059,0,0)" font-style="normal" font-family="MS Shell Dlg 2" stroke-linejoin="bevel" font-size="34.375" font-weight="400" stroke-opacity="1" stroke-linecap="square" stroke="#000000" stroke-width="1" fill="none"/>
  <g transform="matrix(11.8059,0,0,11.8059,0,0)" font-style="normal" font-family="MS Shell Dlg 2" stroke-linejoin="bevel" font-size="34.375" font-weight="400" stroke-opacity="1" stroke-linecap="square" stroke="#000000" stroke-width="1" fill="none"/>
  <g transform="matrix(1,0,0,1,0,0)" font-style="normal" font-family="MS Shell Dlg 2" stroke-linejoin="bevel" font-size="34.375" font-weight="400" stroke-opacity="1" stroke-linecap="square" stroke="#000000" stroke-width="1" fill="none"/>
  <g transform="matrix(11.8059,0,0,11.8059,0,0)" font-style="normal" font-family="MS Shell Dlg 2" stroke-linejoin="bevel" font-size="34.375" font-weight="400" stroke-opacity="1" stroke-linecap="square" stroke="#000000" stroke-width="1" fill="none"/>
  <g transform="matrix(11.8059,0,0,11.8059,0,0)" font-style="normal" font-family="MS Shell Dlg 2" stroke-linejoin="bevel" font-size="34.375" font-weight="400" stroke-opacity="1" stroke-linecap="square" stroke="#000000" stroke-width="1" fill="none"/>
  <g transform="matrix(1,0,0,1,0,0)" font-style="normal" font-family="MS Shell Dlg 2" stroke-linejoin="bevel" font-size="34.375" font-weight="400" stroke-opacity="1" stroke-linecap="square" stroke="#000000" stroke-width="1" fill="none"/>
 </g>
 <defs/>
 <g stroke-linejoin="bevel" stroke-linecap="square" stroke="black" id="Map 2: No Data" fill-rule="evenodd" inkscape:label="Map 2: No Data" inkscape:groupmode="layer" stroke-width="1" fill="none">
  <g transform="matrix(1,0,0,1,0,0)" font-style="normal" font-family="MS Shell Dlg 2" stroke-linejoin="bevel" font-size="34.375" font-weight="400" stroke-opacity="1" stroke-linecap="square" stroke="#000000" stroke-width="1" fill="none"/>
  <g transform="matrix(1,0,0,1,0,0)" font-style="normal" font-family="MS Shell Dlg 2" stroke-linejoin="bevel" font-size="34.375" font-weight="400" stroke-opacity="1" stroke-linecap="square" stroke="#000000" stroke-width="1" fill="none"/>
  <g transform="matrix(11.8059,0,0,11.8059,0,0)" font-style="normal" font-family="MS Shell Dlg 2" stroke-linejoin="bevel" font-size="34.375" font-weight="400" stroke-opacity="1" stroke-linecap="square" stroke="#000000" stroke-width="1" fill="none"/>
  <g transform="matrix(11.8059,0,0,11.8059,0,0)" font-style="normal" font-family="MS Shell Dlg 2" stroke-linejoin="bevel" font-size="34.375" font-weight="400" stroke-opacity="1" stroke-linecap="square" stroke="#000000" stroke-width="1" fill="none"/>
  <g transform="matrix(0.999569,0,0,0.999569,0,0)" font-style="normal" font-family="MS Shell Dlg 2" font-size="34.375" font-weight="400" stroke="none" fill="#000000" fill-opacity="0">
   <rect width="3257" height="2205" y="0" x="0"/>
  </g>
  <g transform="matrix(0.999569,0,0,0.999569,0,0)" font-style="normal" font-family="MS Shell Dlg 2" stroke-linejoin="bevel" font-size="34.375" font-weight="400" stroke-opacity="1" stroke-linecap="square" stroke="#000000" stroke-width="1" fill="none"/>
  <g transform="matrix(0.999569,0,0,0.999569,0,0)" font-style="normal" font-family="MS Shell Dlg 2" stroke-linejoin="bevel" font-size="34.375" font-weight="400" stroke-opacity="1" stroke-linecap="square" stroke="#000000" stroke-width="0.590551" fill="#c2c2c2" fill-opacity="1">
   <path vector-effect="none" fill-rule="evenodd" d="M1286.72,1075.37 L1290.04,1088.46 L1298.2,1103.22 L1328.63,1143.1 L1328.06,1154.08 L1313.61,1177.48 L1309.48,1190.71 L1308.07,1200.2 L1304.75,1207.57 L1295.35,1214.33 L1283.1,1218.34 L1265.6,1220.99 L1250.27,1219.38 L1243.4,1209.61 L1235.02,1193.26 L1162.46,1126.99 L1143.32,1119.22 L1088,1116.36 L1074.45,1113.03 L1059.6,1105.02 L1034.61,1085.36 L1024.04,1072.11 L1020.4,1060.52 L1018.65,1049.14 L1012.69,1036.39 L979.638,1004.64 L965.335,983.742 L959.254,951.715 L962.742,938.909 L971.04,922.983 L998.715,882.329 L998.944,868.372 L995.182,854.334 L993.826,839.002 L1010.27,607.522 L1007.44,592.199 L1000.32,578.181 L1012.79,555.415 L1024.89,523.171 L1038.2,498.058 L1053.43,497.436 L1108.19,478.582 L1140.32,473.499 L1164.03,482.953 L1179.59,503.105 L1191.16,524.131 L1197.18,547.958 L1169.77,792.469 L1181.62,845.45 L1239.4,927.039 L1260.48,980.501 L1261.19,993.919 L1259.35,1021.62 L1260.78,1034.93 L1266.71,1044.48 L1275.26,1052.75 L1283.18,1062.18 L1286.72,1075.37"/>
   <path vector-effect="none" fill-rule="evenodd" d="M2657.35,1608.43 L2656.9,1767.95 L2649.82,1791.6 L2635.08,1801.42 L2623.77,1796.76 L2610.55,1785.71 L2599.85,1772.31 L2595.43,1760.92 L2592.89,1744.64 L2585.85,1735.39 L2490.85,1670.41 L2480.23,1653.51 L2472.33,1633.5 L2452.83,1623.86 L2401.9,1613.44 L2321.77,1572.75 L2310.96,1564.16 L2259.22,1533.63 L2241.78,1514.83 L2262.52,1514.13 L2279.71,1518.34 L2312.86,1532.52 L2335.3,1538.21 L2376.9,1544.17 L2392.11,1550.21 L2398.9,1544.76 L2411.77,1538.02 L2418.36,1532.25 L2457.04,1540.15 L2491.12,1508.87 L2510.61,1460.16 L2506.01,1415.98 L2518.57,1412.22 L2536.26,1401.86 L2550.09,1398 L2556.48,1395.22 L2562.02,1391.05 L2568.2,1387.84 L2577.11,1388.15 L2584.56,1393.56 L2594.76,1411.75 L2599.17,1415.79 L2653.86,1590.12 L2657.35,1608.43"/>
   <path vector-effect="none" fill-rule="evenodd" d="M1704.92,1709.8 L1715.62,1714.44 L1784.09,1759.3 L1798.95,1781.81 L1794.6,1792.27 L1775.03,1795.12 L1744.67,1795.26 L1657.27,1777.97 L1567.1,1775.95 L1546.23,1768.71 L1540.52,1758.94 L1541.67,1736.35 L1537.94,1724.01 L1526.68,1713.53 L1514.93,1708.58 L1505.67,1701.6 L1501.81,1684.25 L1500.11,1637.08 L1507.55,1617.65 L1528.65,1625 L1547.03,1634.71 L1601.13,1644.67 L1625.47,1652.01 L1692.71,1696.22 L1704.92,1709.8"/>
  </g>
  <g transform="matrix(0.999569,0,0,0.999569,0,0)" font-style="normal" font-family="MS Shell Dlg 2" stroke-linejoin="bevel" font-size="34.375" font-weight="400" stroke-opacity="1" stroke-linecap="square" stroke="#000000" stroke-width="1" fill="none"/>
  <g transform="matrix(11.8059,0,0,11.8059,0,0)" font-style="normal" font-family="MS Shell Dlg 2" stroke-linejoin="bevel" font-size="34.375" font-weight="400" stroke-opacity="1" stroke-linecap="square" stroke="#000000" stroke-width="1" fill="none"/>
  <g transform="matrix(11.8059,0,0,11.8059,0,0)" font-style="normal" font-family="MS Shell Dlg 2" stroke-linejoin="bevel" font-size="34.375" font-weight="400" stroke-opacity="1" stroke-linecap="square" stroke="#000000" stroke-width="1" fill="none"/>
  <g transform="matrix(11.8059,0,0,11.8059,0,0)" font-style="normal" font-family="MS Shell Dlg 2" stroke-linejoin="bevel" font-size="34.375" font-weight="400" stroke-opacity="1" stroke-linecap="square" stroke="#000000" stroke-width="1" fill="none"/>
  <g transform="matrix(1,0,0,1,0,0)" font-style="normal" font-family="MS Shell Dlg 2" stroke-linejoin="bevel" font-size="34.375" font-weight="400" stroke-opacity="1" stroke-linecap="square" stroke="#000000" stroke-width="1" fill="none"/>
  <g transform="matrix(11.8059,0,0,11.8059,0,0)" font-style="normal" font-family="MS Shell Dlg 2" stroke-linejoin="bevel" font-size="34.375" font-weight="400" stroke-opacity="1" stroke-linecap="square" stroke="#000000" stroke-width="1" fill="none"/>
  <g transform="matrix(11.8059,0,0,11.8059,0,0)" font-style="normal" font-family="MS Shell Dlg 2" stroke-linejoin="bevel" font-size="34.375" font-weight="400" stroke-opacity="1" stroke-linecap="square" stroke="#000000" stroke-width="1" fill="none"/>
  <g transform="matrix(1,0,0,1,0,0)" font-style="normal" font-family="MS Shell Dlg 2" stroke-linejoin="bevel" font-size="34.375" font-weight="400" stroke-opacity="1" stroke-linecap="square" stroke="#000000" stroke-width="1" fill="none"/>
 </g>
 <defs/>
 <g stroke-linejoin="bevel" stroke-linecap="square" stroke="black" id="Map 2: ne_10m_admin_0_countries" fill-rule="evenodd" inkscape:label="Map 2: ne_10m_admin_0_countries" inkscape:groupmode="layer" stroke-width="1" fill="none">
  <g transform="matrix(1,0,0,1,0,0)" font-style="normal" font-family="MS Shell Dlg 2" stroke-linejoin="bevel" font-size="34.375" font-weight="400" stroke-opacity="1" stroke-linecap="square" stroke="#000000" stroke-width="1" fill="none"/>
  <g transform="matrix(1,0,0,1,0,0)" font-style="normal" font-family="MS Shell Dlg 2" stroke-linejoin="bevel" font-size="34.375" font-weight="400" stroke-opacity="1" stroke-linecap="square" stroke="#000000" stroke-width="1" fill="none"/>
  <g transform="matrix(11.8059,0,0,11.8059,0,0)" font-style="normal" font-family="MS Shell Dlg 2" stroke-linejoin="bevel" font-size="34.375" font-weight="400" stroke-opacity="1" stroke-linecap="square" stroke="#000000" stroke-width="1" fill="none"/>
  <g transform="matrix(11.8059,0,0,11.8059,0,0)" font-style="normal" font-family="MS Shell Dlg 2" stroke-linejoin="bevel" font-size="34.375" font-weight="400" stroke-opacity="1" stroke-linecap="square" stroke="#000000" stroke-width="1" fill="none"/>
  <g transform="matrix(0.999569,0,0,0.999569,0,0)" font-style="normal" font-family="MS Shell Dlg 2" font-size="34.375" font-weight="400" stroke="none" fill="#000000" fill-opacity="0">
   <rect width="3257" height="2205" y="0" x="0"/>
  </g>
  <g transform="matrix(0.999569,0,0,0.999569,0,0)" font-style="normal" font-family="MS Shell Dlg 2" stroke-linejoin="bevel" font-size="34.375" font-weight="400" stroke-opacity="1" stroke-linecap="square" stroke="#000000" stroke-width="1" fill="none"/>
  <g transform="matrix(0.999569,0,0,0.999569,0,0)" font-style="normal" font-family="MS Shell Dlg 2" stroke-linejoin="bevel" font-size="34.375" font-weight="400" stroke-opacity="1" stroke-linecap="square" stroke="#232323" stroke-width="3.07087" fill="#e05225" fill-opacity="1">
   <path vector-effect="none" fill-rule="evenodd" d="M1286.72,1075.37 L1290.04,1088.46 L1298.2,1103.22 L1328.63,1143.1 L1328.06,1154.08 L1313.61,1177.48 L1309.48,1190.71 L1308.07,1200.2 L1304.75,1207.57 L1295.35,1214.33 L1283.1,1218.34 L1265.6,1220.99 L1250.27,1219.38 L1243.4,1209.61 L1235.02,1193.26 L1162.46,1126.99 L1143.32,1119.22 L1088,1116.36 L1074.45,1113.03 L1059.6,1105.02 L1034.61,1085.36 L1024.04,1072.11 L1020.4,1060.52 L1018.65,1049.14 L1012.69,1036.39 L979.638,1004.64 L965.335,983.742 L959.254,951.715 L962.742,938.909 L971.04,922.983 L998.715,882.329 L998.944,868.372 L995.182,854.334 L993.826,839.002 L1010.27,607.522 L1007.44,592.199 L1000.32,578.181 L1012.79,555.415 L1024.89,523.171 L1038.2,498.058 L1053.43,497.436 L1108.19,478.582 L1140.32,473.499 L1164.03,482.953 L1179.59,503.105 L1191.16,524.131 L1197.18,547.958 L1169.77,792.469 L1181.62,845.45 L1239.4,927.039 L1260.48,980.501 L1261.19,993.919 L1259.35,1021.62 L1260.78,1034.93 L1266.71,1044.48 L1275.26,1052.75 L1283.18,1062.18 L1286.72,1075.37"/>
   <path vector-effect="none" fill-rule="evenodd" d="M2657.35,1608.43 L2656.9,1767.95 L2649.82,1791.6 L2635.08,1801.42 L2623.77,1796.76 L2610.55,1785.71 L2599.85,1772.31 L2595.43,1760.92 L2592.89,1744.64 L2585.85,1735.39 L2490.85,1670.41 L2480.23,1653.51 L2472.33,1633.5 L2452.83,1623.86 L2401.9,1613.44 L2321.77,1572.75 L2310.96,1564.16 L2259.22,1533.63 L2241.78,1514.83 L2262.52,1514.13 L2279.71,1518.34 L2312.86,1532.52 L2335.3,1538.21 L2376.9,1544.17 L2392.11,1550.21 L2398.9,1544.76 L2411.77,1538.02 L2418.36,1532.25 L2457.04,1540.15 L2491.12,1508.87 L2510.61,1460.16 L2506.01,1415.98 L2518.57,1412.22 L2536.26,1401.86 L2550.09,1398 L2556.48,1395.22 L2562.02,1391.05 L2568.2,1387.84 L2577.11,1388.15 L2584.56,1393.56 L2594.76,1411.75 L2599.17,1415.79 L2653.86,1590.12 L2657.35,1608.43"/>
   <path vector-effect="none" fill-rule="evenodd" d="M1704.92,1709.8 L1715.62,1714.44 L1784.09,1759.3 L1798.95,1781.81 L1794.6,1792.27 L1775.03,1795.12 L1744.67,1795.26 L1657.27,1777.97 L1567.1,1775.95 L1546.23,1768.71 L1540.52,1758.94 L1541.67,1736.35 L1537.94,1724.01 L1526.68,1713.53 L1514.93,1708.58 L1505.67,1701.6 L1501.81,1684.25 L1500.11,1637.08 L1507.55,1617.65 L1528.65,1625 L1547.03,1634.71 L1601.13,1644.67 L1625.47,1652.01 L1692.71,1696.22 L1704.92,1709.8"/>
  </g>
  <g transform="matrix(0.999569,0,0,0.999569,0,0)" font-style="normal" font-family="MS Shell Dlg 2" stroke-linejoin="bevel" font-size="34.375" font-weight="400" stroke-opacity="1" stroke-linecap="square" stroke="#000000" stroke-width="1" fill="none"/>
  <g transform="matrix(11.8059,0,0,11.8059,0,0)" font-style="normal" font-family="MS Shell Dlg 2" stroke-linejoin="bevel" font-size="34.375" font-weight="400" stroke-opacity="1" stroke-linecap="square" stroke="#000000" stroke-width="1" fill="none"/>
  <g transform="matrix(11.8059,0,0,11.8059,0,0)" font-style="normal" font-family="MS Shell Dlg 2" stroke-linejoin="bevel" font-size="34.375" font-weight="400" stroke-opacity="1" stroke-linecap="square" stroke="#000000" stroke-width="1" fill="none"/>
  <g transform="matrix(11.8059,0,0,11.8059,0,0)" font-style="normal" font-family="MS Shell Dlg 2" stroke-linejoin="bevel" font-size="34.375" font-weight="400" stroke-opacity="1" stroke-linecap="square" stroke="#000000" stroke-width="1" fill="none"/>
  <g transform="matrix(1,0,0,1,0,0)" font-style="normal" font-family="MS Shell Dlg 2" stroke-linejoin="bevel" font-size="34.375" font-weight="400" stroke-opacity="1" stroke-linecap="square" stroke="#000000" stroke-width="1" fill="none"/>
  <g transform="matrix(11.8059,0,0,11.8059,0,0)" font-style="normal" font-family="MS Shell Dlg 2" stroke-linejoin="bevel" font-size="34.375" font-weight="400" stroke-opacity="1" stroke-linecap="square" stroke="#000000" stroke-width="1" fill="none"/>
  <g transform="matrix(11.8059,0,0,11.8059,0,0)" font-style="normal" font-family="MS Shell Dlg 2" stroke-linejoin="bevel" font-size="34.375" font-weight="400" stroke-opacity="1" stroke-linecap="square" stroke="#000000" stroke-width="1" fill="none"/>
  <g transform="matrix(1,0,0,1,0,0)" font-style="normal" font-family="MS Shell Dlg 2" stroke-linejoin="bevel" font-size="34.375" font-weight="400" stroke-opacity="1" stroke-linecap="square" stroke="#000000" stroke-width="1" fill="none"/>
 </g>
 <defs/>
 <g stroke-linejoin="bevel" stroke-linecap="square" stroke="black" id="Map 2: ne_10m_admin_0_countries (Labels)" fill-rule="evenodd" inkscape:label="Map 2: ne_10m_admin_0_countries (Labels)" inkscape:groupmode="layer" stroke-width="1" fill="none">
  <g transform="matrix(1,0,0,1,0,0)" font-style="normal" font-family="MS Shell Dlg 2" stroke-linejoin="bevel" font-size="34.375" font-weight="400" stroke-opacity="1" stroke-linecap="square" stroke="#000000" stroke-width="1" fill="none"/>
  <g transform="matrix(1,0,0,1,0,0)" font-style="normal" font-family="MS Shell Dlg 2" stroke-linejoin="bevel" font-size="34.375" font-weight="400" stroke-opacity="1" stroke-linecap="square" stroke="#000000" stroke-width="1" fill="none"/>
  <g transform="matrix(11.8059,0,0,11.8059,0,0)" font-style="normal" font-family="MS Shell Dlg 2" stroke-linejoin="bevel" font-size="34.375" font-weight="400" stroke-opacity="1" stroke-linecap="square" stroke="#000000" stroke-width="1" fill="none"/>
  <g transform="matrix(11.8059,0,0,11.8059,0,0)" font-style="normal" font-family="MS Shell Dlg 2" stroke-linejoin="bevel" font-size="34.375" font-weight="400" stroke-opacity="1" stroke-linecap="square" stroke="#000000" stroke-width="1" fill="none"/>
  <g transform="matrix(0.999569,0,0,0.999569,0,0)" font-style="normal" font-family="MS Shell Dlg 2" font-size="34.375" font-weight="400" stroke="none" fill="#000000" fill-opacity="0">
   <rect width="3257" height="2205" y="0" x="0"/>
  </g>
  <g transform="matrix(0.999569,0,0,0.999569,0,0)" font-style="normal" font-family="MS Shell Dlg 2" stroke-linejoin="bevel" font-size="34.375" font-weight="400" stroke-opacity="1" stroke-linecap="square" stroke="#000000" stroke-width="1" fill="none"/>
  <g transform="matrix(0.319862,0,0,0.319862,960.447,887.417)" font-style="normal" font-family="MS Shell Dlg 2" stroke-linejoin="bevel" font-size="34.375" font-weight="400" stroke-opacity="1" stroke-linecap="square" stroke="#000000" stroke-width="1" fill="none"/>
  <g transform="matrix(0.999569,0,0,0.999569,960.447,887.417)" font-style="normal" font-family="MS Shell Dlg 2" font-size="34.375" font-weight="400" stroke="none" fill="#000000" fill-opacity="1">
   <path vector-effect="none" fill-rule="nonzero" d="M29.7065,1.09424 C25.7619,1.09424 22.1347,0.432292 18.825,-0.891602 C15.5152,-2.21549 12.658,-4.18783 10.2534,-6.80859 C7.8488,-9.42936 5.98454,-12.6986 4.66064,-16.6162 C3.33675,-20.5339 2.6748,-25.0324 2.6748,-30.1118 C2.6748,-35.1642 3.31649,-39.5682 4.59985,-43.3237 C5.88322,-47.0793 7.75423,-50.3485 10.2129,-53.1313 C12.6175,-55.8332 15.4679,-57.8933 18.7642,-59.3118 C22.0604,-60.7302 25.7484,-61.4395 29.8281,-61.4395 C31.8545,-61.4395 33.7525,-61.2909 35.5222,-60.9937 C37.2919,-60.6965 38.9333,-60.3182 40.4463,-59.8589 C41.7432,-59.4536 43.0738,-58.947 44.4382,-58.3391 C45.8027,-57.7312 47.1468,-57.0625 48.4707,-56.333 L48.4707,-46.647 L47.8223,-46.647 C47.1198,-47.2954 46.2147,-48.0789 45.1069,-48.9976 C43.9992,-49.9162 42.6483,-50.8213 41.0542,-51.7129 C39.5142,-52.5505 37.839,-53.2394 36.0288,-53.7798 C34.2186,-54.3201 32.1247,-54.5903 29.7471,-54.5903 C27.1803,-54.5903 24.7487,-54.0635 22.4521,-53.0098 C20.1556,-51.9561 18.1427,-50.4025 16.4136,-48.3491 C14.7114,-46.2957 13.3875,-43.7155 12.4419,-40.6084 C11.4963,-37.5013 11.0234,-34.0024 11.0234,-30.1118 C11.0234,-25.978 11.5233,-22.4184 12.5229,-19.4329 C13.5226,-16.4473 14.887,-13.9279 16.6162,-11.8745 C18.2913,-9.87516 20.2637,-8.3689 22.5332,-7.35571 C24.8027,-6.34253 27.2074,-5.83594 29.7471,-5.83594 C32.0706,-5.83594 34.2186,-6.11963 36.1909,-6.68701 C38.1632,-7.25439 39.9194,-7.97038 41.4595,-8.83496 C42.9455,-9.67253 44.2288,-10.5304 45.3096,-11.4084 C46.3903,-12.2865 47.2414,-13.0363 47.8628,-13.6577 L48.4707,-13.6577 L48.4707,-4.09326 C47.1468,-3.47184 45.8972,-2.87744 44.7219,-2.31006 C43.5466,-1.74268 42.1214,-1.1888 40.4463,-0.648438 C38.6901,-0.0810547 37.0623,0.351237 35.5627,0.648438 C34.0632,0.945638 32.1112,1.09424 29.7065,1.09424 M92.7563,-22.6143 C92.7563,-14.9951 90.9191,-9.1119 87.2446,-4.9646 C83.5701,-0.817301 78.6799,1.25635 72.5737,1.25635 C66.2785,1.25635 61.3274,-0.884847 57.7205,-5.16724 C54.1135,-9.44963 52.3101,-15.2653 52.3101,-22.6143 C52.3101,-30.1794 54.1676,-36.0558 57.8826,-40.2437 C61.5976,-44.4315 66.4946,-46.5254 72.5737,-46.5254 C78.6799,-46.5254 83.5701,-44.4382 87.2446,-40.2639 C90.9191,-36.0896 92.7563,-30.2064 92.7563,-22.6143 M84.894,-22.6143 C84.894,-28.4772 83.8268,-32.8339 81.6924,-35.6843 C79.5579,-38.5347 76.5184,-39.96 72.5737,-39.96 C68.6021,-39.96 65.5422,-38.5347 63.3943,-35.6843 C61.2463,-32.8339 60.1724,-28.4772 60.1724,-22.6143 C60.1724,-16.9404 61.2463,-12.6378 63.3943,-9.7063 C65.5422,-6.77482 68.6021,-5.30908 72.5737,-5.30908 C76.4914,-5.30908 79.5242,-6.7478 81.6721,-9.62524 C83.8201,-12.5027 84.894,-16.8324 84.894,-22.6143 M151.9,0 L151.9,-26.1807 C151.9,-28.2611 151.819,-30.1861 151.657,-31.9558 C151.495,-33.7255 151.157,-35.1102 150.644,-36.1099 C150.104,-37.1906 149.334,-37.9876 148.334,-38.501 C147.334,-39.0143 145.983,-39.271 144.281,-39.271 C142.714,-39.271 141.032,-38.7914 139.236,-37.8323 C137.439,-36.8731 135.581,-35.4884 133.663,-33.6782 C133.69,-33.2189 133.724,-32.6718 133.764,-32.0369 C133.805,-31.4019 133.825,-30.6522 133.825,-29.7876 L133.825,0 L126.206,0 L126.206,-26.1807 C126.206,-28.2611 126.125,-30.1861 125.963,-31.9558 C125.801,-33.7255 125.463,-35.1102 124.95,-36.1099 C124.409,-37.1906 123.639,-37.9876 122.64,-38.501 C121.64,-39.0143 120.289,-39.271 118.587,-39.271 C116.939,-39.271 115.21,-38.7576 113.399,-37.731 C111.589,-36.7043 109.833,-35.3939 108.131,-33.7998 L108.131,0 L100.512,0 L100.512,-45.269 L108.131,-45.269 L108.131,-40.2437 C110.13,-42.243 112.109,-43.7898 114.068,-44.884 C116.027,-45.9783 118.182,-46.5254 120.532,-46.5254 C123.207,-46.5254 125.578,-45.9175 127.645,-44.7017 C129.712,-43.4858 131.285,-41.4865 132.366,-38.7036 C134.663,-41.2703 136.905,-43.2157 139.094,-44.5396 C141.282,-45.8634 143.66,-46.5254 146.227,-46.5254 C148.172,-46.5254 149.942,-46.2214 151.536,-45.6135 C153.13,-45.0056 154.521,-44.0262 155.71,-42.6753 C156.926,-41.2974 157.865,-39.5817 158.527,-37.5283 C159.189,-35.4749 159.52,-32.8947 159.52,-29.7876 L159.52,0 L151.9,0 M207.756,-22.6143 C207.756,-14.9951 205.919,-9.1119 202.245,-4.9646 C198.57,-0.817301 193.68,1.25635 187.574,1.25635 C181.278,1.25635 176.327,-0.884847 172.72,-5.16724 C169.114,-9.44963 167.31,-15.2653 167.31,-22.6143 C167.31,-30.1794 169.168,-36.0558 172.883,-40.2437 C176.598,-44.4315 181.495,-46.5254 187.574,-46.5254 C193.68,-46.5254 198.57,-44.4382 202.245,-40.2639 C205.919,-36.0896 207.756,-30.2064 207.756,-22.6143 M199.894,-22.6143 C199.894,-28.4772 198.827,-32.8339 196.692,-35.6843 C194.558,-38.5347 191.518,-39.96 187.574,-39.96 C183.602,-39.96 180.542,-38.5347 178.394,-35.6843 C176.246,-32.8339 175.172,-28.4772 175.172,-22.6143 C175.172,-16.9404 176.246,-12.6378 178.394,-9.7063 C180.542,-6.77482 183.602,-5.30908 187.574,-5.30908 C191.491,-5.30908 194.524,-6.7478 196.672,-9.62524 C198.82,-12.5027 199.894,-16.8324 199.894,-22.6143 M239.504,-37.0825 L239.099,-37.0825 C238.531,-37.2446 237.93,-37.3459 237.295,-37.3865 C236.66,-37.427 235.897,-37.4473 235.005,-37.4473 C232.952,-37.4473 230.912,-37.0015 228.886,-36.1099 C226.859,-35.2183 224.941,-33.8944 223.131,-32.1382 L223.131,0 L215.512,0 L215.512,-45.269 L223.131,-45.269 L223.131,-38.5415 C225.914,-41.0002 228.339,-42.7361 230.406,-43.7493 C232.472,-44.7625 234.479,-45.269 236.424,-45.269 C237.207,-45.269 237.795,-45.2488 238.187,-45.2083 C238.579,-45.1677 239.018,-45.1069 239.504,-45.0259 L239.504,-37.0825 M282.756,-22.6143 C282.756,-14.9951 280.919,-9.1119 277.245,-4.9646 C273.57,-0.817301 268.68,1.25635 262.574,1.25635 C256.278,1.25635 251.327,-0.884847 247.72,-5.16724 C244.114,-9.44963 242.31,-15.2653 242.31,-22.6143 C242.31,-30.1794 244.168,-36.0558 247.883,-40.2437 C251.598,-44.4315 256.495,-46.5254 262.574,-46.5254 C268.68,-46.5254 273.57,-44.4382 277.245,-40.2639 C280.919,-36.0896 282.756,-30.2064 282.756,-22.6143 M274.894,-22.6143 C274.894,-28.4772 273.827,-32.8339 271.692,-35.6843 C269.558,-38.5347 266.518,-39.96 262.574,-39.96 C258.602,-39.96 255.542,-38.5347 253.394,-35.6843 C251.246,-32.8339 250.172,-28.4772 250.172,-22.6143 C250.172,-16.9404 251.246,-12.6378 253.394,-9.7063 C255.542,-6.77482 258.602,-5.30908 262.574,-5.30908 C266.491,-5.30908 269.524,-6.7478 271.672,-9.62524 C273.82,-12.5027 274.894,-16.8324 274.894,-22.6143 M302.751,1.09424 C299.725,1.09424 296.895,0.688965 294.26,-0.121582 C291.626,-0.932129 289.444,-1.79671 287.715,-2.71533 L287.715,-11.2666 L288.121,-11.2666 C288.769,-10.7533 289.532,-10.1859 290.41,-9.56445 C291.288,-8.94303 292.457,-8.2946 293.916,-7.61914 C295.213,-7.02474 296.638,-6.49788 298.192,-6.03857 C299.745,-5.57926 301.36,-5.34961 303.035,-5.34961 C304.25,-5.34961 305.547,-5.49146 306.925,-5.77515 C308.303,-6.05884 309.33,-6.41683 310.005,-6.84912 C310.951,-7.47054 311.633,-8.13249 312.052,-8.83496 C312.471,-9.53743 312.68,-10.5911 312.68,-11.9961 C312.68,-13.8063 312.187,-15.1707 311.201,-16.0894 C310.215,-17.008 308.465,-17.778 305.953,-18.3994 C304.98,-18.6426 303.71,-18.9263 302.143,-19.2505 C300.576,-19.5747 299.131,-19.9259 297.807,-20.3042 C294.348,-21.3039 291.836,-22.8507 290.269,-24.9446 C288.701,-27.0385 287.918,-29.5715 287.918,-32.5435 C287.918,-36.6232 289.458,-39.9465 292.538,-42.5132 C295.618,-45.0799 299.711,-46.3633 304.818,-46.3633 C307.331,-46.3633 309.857,-46.0526 312.396,-45.4312 C314.936,-44.8097 317.071,-44.0262 318.8,-43.0806 L318.8,-34.9346 L318.395,-34.9346 C316.449,-36.4746 314.281,-37.6904 311.89,-38.582 C309.499,-39.4736 307.087,-39.9194 304.656,-39.9194 C302.143,-39.9194 300.022,-39.3926 298.293,-38.3389 C296.564,-37.2852 295.699,-35.6911 295.699,-33.5566 C295.699,-31.6654 296.213,-30.2537 297.239,-29.3215 C298.266,-28.3894 299.914,-27.6261 302.184,-27.0317 C303.318,-26.7345 304.581,-26.4441 305.973,-26.1604 C307.364,-25.8767 308.83,-25.5457 310.37,-25.1675 C313.72,-24.3299 316.24,-22.9385 317.928,-20.9932 C319.617,-19.0479 320.461,-16.4001 320.461,-13.0498 C320.461,-11.1045 320.076,-9.2605 319.306,-7.51782 C318.536,-5.77515 317.408,-4.28239 315.922,-3.03955 C314.301,-1.68864 312.471,-0.661947 310.431,0.0405273 C308.391,0.743001 305.831,1.09424 302.751,1.09424 "/>
  </g>
  <g transform="matrix(0.319862,0,0,0.319862,960.447,887.417)" font-style="normal" font-family="MS Shell Dlg 2" stroke-linejoin="bevel" font-size="34.375" font-weight="400" stroke-opacity="1" stroke-linecap="square" stroke="#000000" stroke-width="1" fill="none"/>
  <g transform="matrix(0.999569,0,0,0.999569,0,0)" font-style="normal" font-family="MS Shell Dlg 2" stroke-linejoin="bevel" font-size="34.375" font-weight="400" stroke-opacity="1" stroke-linecap="square" stroke="#000000" stroke-width="1" fill="none"/>
  <g transform="matrix(11.8059,0,0,11.8059,0,0)" font-style="normal" font-family="MS Shell Dlg 2" stroke-linejoin="bevel" font-size="34.375" font-weight="400" stroke-opacity="1" stroke-linecap="square" stroke="#000000" stroke-width="1" fill="none"/>
  <g transform="matrix(11.8059,0,0,11.8059,0,0)" font-style="normal" font-family="MS Shell Dlg 2" stroke-linejoin="bevel" font-size="34.375" font-weight="400" stroke-opacity="1" stroke-linecap="square" stroke="#000000" stroke-width="1" fill="none"/>
  <g transform="matrix(11.8059,0,0,11.8059,0,0)" font-style="normal" font-family="MS Shell Dlg 2" stroke-linejoin="bevel" font-size="34.375" font-weight="400" stroke-opacity="1" stroke-linecap="square" stroke="#000000" stroke-width="1" fill="none"/>
  <g transform="matrix(1,0,0,1,0,0)" font-style="normal" font-family="MS Shell Dlg 2" stroke-linejoin="bevel" font-size="34.375" font-weight="400" stroke-opacity="1" stroke-linecap="square" stroke="#000000" stroke-width="1" fill="none"/>
  <g transform="matrix(11.8059,0,0,11.8059,0,0)" font-style="normal" font-family="MS Shell Dlg 2" stroke-linejoin="bevel" font-size="34.375" font-weight="400" stroke-opacity="1" stroke-linecap="square" stroke="#000000" stroke-width="1" fill="none"/>
  <g transform="matrix(11.8059,0,0,11.8059,0,0)" font-style="normal" font-family="MS Shell Dlg 2" stroke-linejoin="bevel" font-size="34.375" font-weight="400" stroke-opacity="1" stroke-linecap="square" stroke="#000000" stroke-width="1" fill="none"/>
  <g transform="matrix(1,0,0,1,0,0)" font-style="normal" font-family="MS Shell Dlg 2" stroke-linejoin="bevel" font-size="34.375" font-weight="400" stroke-opacity="1" stroke-linecap="square" stroke="#000000" stroke-width="1" fill="none"/>
 </g>
 <defs/>
 <g stroke-linejoin="bevel" stroke-linecap="square" stroke="black" id="Labels, Shape" fill-rule="evenodd" inkscape:label="Labels, Shape" inkscape:groupmode="layer" stroke-width="1" fill="none">
  <g transform="matrix(1,0,0,1,0,0)" font-style="normal" font-family="MS Shell Dlg 2" stroke-linejoin="bevel" font-size="34.375" font-weight="400" stroke-opacity="1" stroke-linecap="square" stroke="#000000" stroke-width="1" fill="none"/>
  <g transform="matrix(1,0,0,1,0,0)" font-style="normal" font-family="MS Shell Dlg 2" stroke-linejoin="bevel" font-size="34.375" font-weight="400" stroke-opacity="1" stroke-linecap="square" stroke="#000000" stroke-width="1" fill="none"/>
  <g transform="matrix(11.8059,0,0,11.8059,200.364,1708.66)" font-style="normal" font-family="MS Shell Dlg 2" stroke-linejoin="bevel" font-size="34.375" font-weight="400" stroke-opacity="1" stroke-linecap="square" stroke="#000000" stroke-width="1" fill="none"/>
  <g transform="matrix(0.999569,0,0,0.999569,200.364,1708.66)" font-style="normal" font-family="MS Shell Dlg 2" stroke-linejoin="bevel" font-size="34.375" font-weight="400" stroke-opacity="1" stroke-linecap="square" stroke="#000000" stroke-width="1" fill="none"/>
  <g transform="matrix(11.8059,0,0,11.8059,200.364,1708.66)" font-style="normal" font-family="MS Shell Dlg 2" stroke-linejoin="bevel" font-size="41.6667" font-weight="400" stroke-opacity="1" stroke-linecap="square" stroke="#000000" stroke-width="1" fill="none"/>
  <g transform="matrix(11.8059,0,0,11.8059,200.364,1708.66)" font-style="normal" font-family="MS Shell Dlg 2" stroke-linejoin="bevel" font-size="41.6667" font-weight="400" stroke-opacity="1" stroke-linecap="square" stroke="#000000" stroke-width="1" fill="none"/>
  <g transform="matrix(0.999569,0,0,0.999569,200.364,1708.66)" font-style="normal" font-family="MS Shell Dlg 2" stroke-linejoin="bevel" font-size="34.375" font-weight="400" stroke-opacity="1" stroke-linecap="square" stroke="#000000" stroke-width="1" fill="none"/>
  <g transform="matrix(11.8059,0,0,11.8059,200.364,1708.66)" font-style="normal" font-family="MS Shell Dlg 2" stroke-linejoin="bevel" font-size="34.375" font-weight="400" stroke-opacity="1" stroke-linecap="square" stroke="#000000" stroke-width="1" fill="none"/>
  <g transform="matrix(11.8059,0,0,11.8059,200.364,1708.66)" font-style="normal" font-family="MS Shell Dlg 2" stroke-linejoin="bevel" font-size="34.375" font-weight="400" stroke-opacity="1" stroke-linecap="square" stroke="#000000" stroke-width="1" fill="none"/>
  <g transform="matrix(11.8059,0,0,11.8059,66.7879,1853.36)" font-style="normal" font-family="MS Shell Dlg 2" stroke-linejoin="bevel" font-size="34.375" font-weight="400" stroke-opacity="1" stroke-linecap="square" stroke="#000000" stroke-width="1" fill="none"/>
  <g transform="matrix(0.999569,0,0,0.999569,66.7879,1853.36)" font-style="normal" font-family="MS Shell Dlg 2" stroke-linejoin="miter" font-size="34.375" font-weight="400" stroke-opacity="1" stroke-linecap="square" stroke-miterlimit="2" stroke="#000000" stroke-width="3.54331" fill="#d5c1a8" fill-opacity="1">
   <path vector-effect="none" fill-rule="evenodd" d="M0,0 L606.918,0 L606.918,300.675 L0,300.675 L0,0"/>
  </g>
  <g transform="matrix(11.8059,0,0,11.8059,66.7879,1853.36)" font-style="normal" font-family="MS Shell Dlg 2" stroke-linejoin="bevel" font-size="34.375" font-weight="400" stroke-opacity="1" stroke-linecap="square" stroke="#000000" stroke-width="1" fill="none"/>
  <g transform="matrix(11.8059,0,0,11.8059,66.7879,1853.36)" font-style="normal" font-family="MS Shell Dlg 2" stroke-linejoin="bevel" font-size="34.375" font-weight="400" stroke-opacity="1" stroke-linecap="square" stroke="#000000" stroke-width="1" fill="none"/>
  <g transform="matrix(11.8059,0,0,11.8059,172.535,1903.45)" font-style="normal" font-family="MS Shell Dlg 2" stroke-linejoin="bevel" font-size="34.375" font-weight="400" stroke-opacity="1" stroke-linecap="square" stroke="#000000" stroke-width="1" fill="none"/>
  <g transform="matrix(0.999569,0,0,0.999569,172.535,1903.45)" font-style="normal" font-family="MS Shell Dlg 2" stroke-linejoin="bevel" font-size="34.375" font-weight="400" stroke-opacity="1" stroke-linecap="square" stroke="#000000" stroke-width="1" fill="none"/>
  <g transform="matrix(11.8059,0,0,11.8059,172.535,1903.45)" font-style="normal" font-family="MS Shell Dlg 2" stroke-linejoin="bevel" font-size="62.5" font-weight="400" stroke-opacity="1" stroke-linecap="square" stroke="#000000" stroke-width="1" fill="none"/>
  <g transform="matrix(1.18059,0,0,1.18059,172.535,1903.45)" font-style="normal" font-family="MS Shell Dlg 2" stroke-linejoin="bevel" font-size="53" font-weight="400" stroke-opacity="1" stroke-linecap="square" stroke="#000000" stroke-width="1" fill="none">
   <text font-style="normal" font-family="MS Shell Dlg 2" font-size="53" font-weight="400" y="103.5" stroke="none" x="19.2813" fill="#000000" fill-opacity="1" xml:space="preserve">Tariff: 18.9%</text>
  </g>
  <g transform="matrix(11.8059,0,0,11.8059,172.535,1903.45)" font-style="normal" font-family="MS Shell Dlg 2" stroke-linejoin="bevel" font-size="62.5" font-weight="400" stroke-opacity="1" stroke-linecap="square" stroke="#000000" stroke-width="1" fill="none"/>
  <g transform="matrix(0.999569,0,0,0.999569,172.535,1903.45)" font-style="normal" font-family="MS Shell Dlg 2" stroke-linejoin="bevel" font-size="34.375" font-weight="400" stroke-opacity="1" stroke-linecap="square" stroke="#000000" stroke-width="1" fill="none"/>
  <g transform="matrix(11.8059,0,0,11.8059,172.535,1903.45)" font-style="normal" font-family="MS Shell Dlg 2" stroke-linejoin="bevel" font-size="34.375" font-weight="400" stroke-opacity="1" stroke-linecap="square" stroke="#000000" stroke-width="1" fill="none"/>
  <g transform="matrix(11.8059,0,0,11.8059,172.535,1903.45)" font-style="normal" font-family="MS Shell Dlg 2" stroke-linejoin="bevel" font-size="34.375" font-weight="400" stroke-opacity="1" stroke-linecap="square" stroke="#000000" stroke-width="1" fill="none"/>
  <g transform="matrix(1,0,0,1,0,0)" font-style="normal" font-family="MS Shell Dlg 2" stroke-linejoin="bevel" font-size="34.375" font-weight="400" stroke-opacity="1" stroke-linecap="square" stroke="#000000" stroke-width="1" fill="none"/>
 </g>
</svg>
